<?xml version="1.0" encoding="utf-8"?>
<!-- Generator: Adobe Illustrator 21.0.2, SVG Export Plug-In . SVG Version: 6.00 Build 0)  -->
<svg version="1.1" id="Layer_1" xmlns="http://www.w3.org/2000/svg" xmlns:xlink="http://www.w3.org/1999/xlink" x="0px" y="0px"
	 viewBox="0 0 177.6 190.2" style="enable-background:new 0 0 177.6 190.2;" xml:space="preserve">
<style type="text/css">
	.st0{fill:#B3C022;}
	.st1{fill:#FFFFFF;}
	.st2{fill:#F99F38;}
</style>
<path class="st0" d="M115.8,81.7h57c2.7,0,4.8,2.2,4.8,4.8v2.5v2.5v19.5c0,2.9-2.3,5.2-5.2,5.2s-5.2-2.3-5.2-5.2
	c0-2.8-2.3-5.2-5.2-5.2c-2.9,0-5.2,2.3-5.2,5.2c0,2.8-2.3,5.2-5.2,5.2s-5.2-2.3-5.2-5.2c0-2.8-2.3-5.2-5.2-5.2s-5.2,2.3-5.2,5.2
	c0,2.8-2.3,5.2-5.2,5.2c-2.9,0-5.2-2.3-5.2-5.2c0-2.8-2.3-5.2-5.2-5.2c-2.9,0-5.2,2.3-5.2,5.2c0,2.8-2.3,5.2-5.2,5.2
	c-2.9,0-5.2-2.3-5.2-5.2c0-2.8-2.3-5.2-5.2-5.2c-2.9,0-5.2,2.3-5.2,5.2c0,2.6-2,4.8-4.6,5.1c0,0-0.1,0-0.1,0c0,0-0.1,0-0.1,0
	c0,0-0.1,0-0.1,0c0,0-0.1,0-0.1,0c0,0-0.1,0-0.1,0c0,0-0.1,0-0.1,0c0,0-0.1,0-0.1,0c0,0-0.1,0-0.1,0c0,0-0.1,0-0.1,0
	c0,0-0.1,0-0.1,0c-2.6-0.3-4.6-2.5-4.6-5.1c0-2.8-2.3-5.2-5.2-5.2c-2.9,0-5.2,2.3-5.2,5.2c0,2.8-2.3,5.2-5.2,5.2
	c-2.9,0-5.2-2.3-5.2-5.2c0-2.8-2.3-5.2-5.2-5.2s-5.2,2.3-5.2,5.2c0,2.8-2.3,5.2-5.2,5.2s-5.2-2.3-5.2-5.2c0-2.8-2.3-5.2-5.2-5.2
	c-2.9,0-5.2,2.3-5.2,5.2c0,2.8-2.3,5.2-5.2,5.2s-5.2-2.3-5.2-5.2c0-2.8-2.3-5.2-5.2-5.2c-2.9,0-5.2,2.3-5.2,5.2
	c0,2.8-2.3,5.2-5.2,5.2c-2.9,0-5.2-2.3-5.2-5.2V91.6v-4.2v-0.8c0-2.7,2.2-4.8,4.8-4.8h55"/>
<g>
	<defs>
		<rect id="SVGID_1_" x="-611.2" y="-361.5" width="1400" height="3750"/>
	</defs>
	<clipPath id="SVGID_2_">
		<use xlink:href="#SVGID_1_"  style="overflow:visible;"/>
	</clipPath>
</g>
<rect x="106.4" y="20.1" class="st1" width="9.4" height="4.5"/>
<g>
	<defs>
		<rect id="SVGID_3_" x="-611.2" y="-361.5" width="1400" height="3750"/>
	</defs>
	<clipPath id="SVGID_4_">
		<use xlink:href="#SVGID_3_"  style="overflow:visible;"/>
	</clipPath>
</g>
<polygon class="st1" points="59.8,26.6 59.8,20.1 69.2,20.1 69.2,26.8 "/>
<g>
	<defs>
		<rect id="SVGID_5_" x="-611.2" y="-361.5" width="1400" height="3750"/>
	</defs>
	<clipPath id="SVGID_6_">
		<use xlink:href="#SVGID_5_"  style="overflow:visible;"/>
	</clipPath>
</g>
<rect x="0" y="143.9" class="st2" width="177.6" height="12.8"/>
<g>
	<defs>
		<rect id="SVGID_7_" x="-611.2" y="-361.5" width="1400" height="3750"/>
	</defs>
	<clipPath id="SVGID_8_">
		<use xlink:href="#SVGID_7_"  style="overflow:visible;"/>
	</clipPath>
</g>
<polygon class="st1" points="46.6,24.9 73.7,24 73.7,76.6 54.7,76.6 54.7,40.9 46.6,41.5 "/>
<rect x="59.8" y="75.1" class="st1" width="9.4" height="6.6"/>
<rect x="106.4" y="76.6" class="st1" width="9.4" height="5.2"/>
<path class="st1" d="M106.5,40.6c0,2.2,1.9,3.8,3.9,3.8c2,0,3.9-1.7,3.9-3.8c0-2.3-1.7-4.1-3.9-4.1
	C108.2,36.5,106.5,38.3,106.5,40.6 M105.3,59.5c0,3,2.3,5.4,5.2,5.4c2.9,0,5.2-2.4,5.2-5.4c0-2.9-2.6-5-5.2-5S105.3,56.6,105.3,59.5
	 M132.8,39.1c0,4.9-3.1,8.8-7.8,10.2v0.5c5.5,1.4,9.5,5.9,9.5,11.8c0,12.3-14.5,15.9-24,15.9c-9.5,0-24-3.6-24-15.9
	c0-5.9,4-10.4,9.5-11.8v-0.5c-4.7-1.4-7.8-5.3-7.8-10.2c0-11.6,12.9-15.9,22.3-15.9C119.9,23.2,132.8,27.5,132.8,39.1"/>
<path class="st1" d="M177.6,122v14.4H0V122c1.6,0.8,3.4,1.2,5.2,1.2c4.5,0,8.4-2.4,10.4-6.1c2.1,3.6,6,6.1,10.4,6.1
	c4.5,0,8.4-2.4,10.4-6.1c2.1,3.6,6,6.1,10.4,6.1c4.5,0,8.4-2.4,10.4-6.1c2.1,3.6,6,6.1,10.4,6.1c4.5,0,8.4-2.4,10.4-6.1
	c1.8,3.2,5.1,5.5,8.9,6c0.1,0,0.2,0,0.3,0c0.1,0,0.2,0,0.3,0c0.1,0,0.2,0,0.3,0c0.1,0,0.2,0,0.3,0c0.1,0,0.2,0,0.3,0
	c0.1,0,0.2,0,0.3,0c0.1,0,0.2,0,0.3,0c0.1,0,0.2,0,0.3,0c0.1,0,0.2,0,0.3,0c0.1,0,0.2,0,0.3,0c3.8-0.5,7.1-2.8,8.9-6
	c2.1,3.6,6,6.1,10.4,6.1c4.5,0,8.4-2.4,10.4-6.1c2.1,3.6,6,6.1,10.4,6.1c4.5,0,8.4-2.4,10.4-6.1c2.1,3.6,6,6.1,10.4,6.1
	c4.5,0,8.4-2.4,10.4-6.1c2.1,3.6,6,6.1,10.4,6.1C174.3,123.2,176,122.8,177.6,122"/>
<path class="st1" d="M177.6,169.7v7.3v7.3c0,3.2-2.6,5.8-5.8,5.8H5.8c-3.2,0-5.8-2.6-5.8-5.8v-7.3v-7.3v-5.9h177.6V169.7z"/>
<path class="st2" d="M111.1,0c2.6,0,4.7,9.5,4.7,13.5c0,4-2.1,4.1-4.7,4.1c-2.6,0-4.7-0.1-4.7-4.1C106.3,9.5,108.5,0,111.1,0"/>
<path class="st2" d="M64.5,0c2.6,0,4.7,9.5,4.7,13.5c0,4-2.1,4.1-4.7,4.1c-2.6,0-4.7-0.1-4.7-4.1C59.8,9.5,61.9,0,64.5,0"/>
<line class="st0" x1="69.2" y1="81.7" x2="106.4" y2="81.7"/>
</svg>
