<?xml version="1.0" encoding="utf-8"?>
<!-- Generator: Adobe Illustrator 21.0.0, SVG Export Plug-In . SVG Version: 6.00 Build 0)  -->
<svg version="1.1" id="Layer_1" xmlns="http://www.w3.org/2000/svg" xmlns:xlink="http://www.w3.org/1999/xlink" x="0px" y="0px"
	 viewBox="0 0 800 800" style="enable-background:new 0 0 800 800;" xml:space="preserve">
<style type="text/css">
	.st0{fill:#FFFFFF;}
</style>
<path class="st0" d="M488.6,371.2c-23.7-25.4-55.2-39.4-88.6-39.4c-33.4,0-64.9,14-88.6,39.4c-24.1,25.8-37.3,60.2-37.3,96.9h13
	c0-6.1,0.4-12.1,1.3-18h34.5c-0.5,5.9-0.7,11.9-0.7,18h13c0-62.9,29.1-114.1,64.8-114.1s64.8,51.2,64.8,114.1h13
	c0-6.1-0.2-12.1-0.7-18h34.5c0.8,5.9,1.3,11.9,1.3,18h13C525.9,431.4,512.6,397,488.6,371.2z M324.3,437H291
	c1.5-6,3.5-11.9,5.9-17.5h30.7C326.3,425.2,325.2,431,324.3,437z M331.3,406.4h-27.8c3.1-5.5,6.7-10.6,10.5-15.4H337
	C334.9,395.9,333,401.1,331.3,406.4z M344.3,376.4c-0.3,0.5-0.5,0.9-0.8,1.4h-17.3c9.6-8.8,20.5-15.8,32.5-20.8
	C353.5,362.4,348.7,368.9,344.3,376.4z M455.7,376.4c-4.4-7.5-9.2-14-14.3-19.4c12,5,22.9,12.1,32.5,20.8h-17.3
	C456.2,377.4,455.9,376.9,455.7,376.4z M463,391h23.1c3.9,4.8,7.4,10,10.5,15.4h-27.8C467,401.1,465.1,395.9,463,391z M475.7,437
	c-0.9-6-2-11.8-3.3-17.5h30.7c2.4,5.6,4.4,11.5,5.9,17.5H475.7z"/>
</svg>
