<?xml version="1.0" encoding="utf-8"?>
<!-- Generator: Adobe Illustrator 21.0.2, SVG Export Plug-In . SVG Version: 6.00 Build 0)  -->
<svg version="1.1" id="Layer_1" xmlns="http://www.w3.org/2000/svg" xmlns:xlink="http://www.w3.org/1999/xlink" x="0px" y="0px"
	 viewBox="0 0 233.9 66.4" style="enable-background:new 0 0 233.9 66.4;" xml:space="preserve">
<style type="text/css">
	.st0{fill:#FFFFFF;}
</style>
<g>
	<path class="st0" d="M117.1,48.2h16.1c0,0.6,0,1.2,0,1.8c0,10.4-5.9,16.2-15.6,16.2c-4.8,0-8.5-1.4-11.5-4.4
		c-2.9-2.9-4.5-7-4.5-11.2c0-9.1,6.8-15.7,16-15.7c5.8,0,10.4,2.4,13.5,6.9l-7.1,3.4c-1.7-2.3-3.8-3.4-6.4-3.4
		c-4.8,0-7.9,3.4-7.9,9.2c0,5.8,3.1,9.2,7.9,9.2c4.2,0,7.2-2.4,7.6-5.6h-8.1V48.2z"/>
	<path class="st0" d="M163.3,61.7c-3.1,3-7.2,4.6-11.4,4.6c-3.7,0-7.3-1.3-10.2-3.6c-3.8-3-5.8-7.3-5.8-12.1c0-4.3,1.6-8.1,4.7-11.1
		c3-2.9,7.1-4.6,11.3-4.6c4.2,0,8.4,1.7,11.4,4.6c3.1,3,4.7,6.9,4.7,11.1C167.9,54.9,166.3,58.8,163.3,61.7z M159.8,50.6
		c0-4.9-3.3-8.8-7.8-8.8c-4.6,0-7.8,3.9-7.8,8.8c0,5,3.1,8.8,7.8,8.8C156.6,59.4,159.8,55.5,159.8,50.6z"/>
	<path class="st0" d="M198.2,61.7c-3.1,3-7.2,4.6-11.4,4.6c-3.7,0-7.3-1.3-10.2-3.6c-3.8-3-5.8-7.3-5.8-12.1c0-4.3,1.6-8.1,4.7-11.1
		c3-2.9,7.1-4.6,11.3-4.6c4.2,0,8.4,1.7,11.4,4.6c3.1,3,4.7,6.9,4.7,11.1C202.8,54.9,201.2,58.8,198.2,61.7z M194.6,50.6
		c0-4.9-3.3-8.8-7.8-8.8c-4.6,0-7.8,3.9-7.8,8.8c0,5,3.1,8.8,7.8,8.8C191.5,59.4,194.6,55.5,194.6,50.6z"/>
	<path class="st0" d="M206.9,35.5h6.3c0.3,0,0.6,0,1,0c5.6,0,10.1,0.1,14,2.9c3.8,2.6,5.8,6.8,5.8,12.2c0,5.3-2,9.5-5.8,12.2
		c-3.7,2.6-7.9,2.8-12.9,2.8c-0.7,0-1.4,0-2.1,0h-6.3V35.5z M216.4,58.8c6.3,0,9.2-2.4,9.2-8.3c0-6-3.1-8.3-9.2-8.3H215v16.6H216.4z
		"/>
</g>
<g>
	<path class="st0" d="M66.1,30V0h8.6c0.2,0,0.4,0,0.6,0c3.8,0,6.8,0,9.1,1.6c2.6,1.7,4.2,4.8,4.2,8.6c0,4-1.5,7-4.2,8.6
		c-2.1,1.2-4.4,1.3-7.2,1.3c-0.6,0-1.3,0-2,0h-1.5V30H66.1z M75.4,13.5c3.5,0,5.3-0.7,5.3-3.6s-1.9-3.5-5.2-3.5h-1.6v7.1H75.4z"/>
	<path class="st0" d="M91.9,0h8.2v23h10.2v7H91.9V0z"/>
	<path class="st0" d="M122.3,0h10.2l10.4,30h-8.1l-1.5-5.4h-11.6l-1.6,5.4H112L122.3,0z M131.6,18.8l-3.1-9.9c-0.1-0.5-0.5-1.8-1-4
		c-0.5,2.2-0.9,3.6-1,4l-3,9.9H131.6z"/>
	<path class="st0" d="M150.8,16.3L140.3,0h9.4l4,7.7c0.2,0.4,0.7,1.2,1,2.6c0.3-1.3,0.8-2.1,1-2.6l4-7.7h9.4l-10.5,16.3V30h-7.9
		V16.3z"/>
</g>
<g>
	<path class="st0" d="M11.2,19.7h8.2v0.7c0,1.5-0.2,2.8-0.5,3.9c-0.3,1.1-0.9,2-1.7,3c-1.8,2.1-4.2,3.1-7,3.1c-2.8,0-5.1-1-7.1-3
		c-2-2-3-4.4-3-7.2c0-2.9,1-5.3,3-7.3c2-2,4.4-3,7.3-3c1.5,0,3,0.3,4.3,0.9c1.3,0.6,2.5,1.7,3.8,3.1l-2.1,2
		c-1.6-2.2-3.6-3.2-5.9-3.2c-2.1,0-3.8,0.7-5.3,2.2C3.7,16.2,3,18,3,20.1c0,2.2,0.8,4,2.4,5.4c1.5,1.3,3.1,2,4.8,2
		c1.5,0,2.8-0.5,4-1.5c1.2-1,1.8-2.2,2-3.6h-4.9V19.7z"/>
	<path class="st0" d="M26.1,10.2V30h-3V10.2H26.1z"/>
	<path class="st0" d="M31.8,10.2l5.5,13.7l5.5-13.7h3.3l-8.9,21.3l-8.7-21.3H31.8z"/>
	<path class="st0" d="M59.5,13h-7.9v4.8h7.7v2.8h-7.7v6.6h7.9V30H48.6V10.2h10.9V13z"/>
</g>
<g>
	<path class="st0" d="M58.1,38.3h-6.9v4.8h6.6v2.8h-6.6v9.4h-3V35.5h9.9V38.3z"/>
	<path class="st0" d="M60.6,45.3c0-2.8,1-5.2,3.1-7.2c2-2,4.5-3,7.3-3c2.8,0,5.2,1,7.3,3c2,2,3,4.4,3,7.3c0,2.8-1,5.3-3,7.2
		c-2,2-4.5,3-7.4,3c-2.6,0-4.8-0.9-6.9-2.7C61.7,51.1,60.6,48.5,60.6,45.3z M63.6,45.4c0,2.2,0.7,4,2.2,5.4c1.5,1.4,3.1,2.1,5.1,2.1
		c2.1,0,3.8-0.7,5.3-2.2c1.4-1.5,2.1-3.2,2.1-5.3c0-2.1-0.7-3.9-2.1-5.3C74.7,38.7,73,38,70.9,38c-2.1,0-3.8,0.7-5.2,2.2
		C64.3,41.5,63.6,43.3,63.6,45.4z"/>
	<path class="st0" d="M91.7,46.9l6.1,8.4h-3.7l-5.6-8.1H88v8.1h-3V35.5h3.5c2.6,0,4.5,0.5,5.7,1.5c1.3,1.1,1.9,2.5,1.9,4.3
		c0,1.4-0.4,2.6-1.2,3.6S93,46.6,91.7,46.9z M88,44.6h0.9c2.8,0,4.2-1.1,4.2-3.2c0-2-1.4-3-4.1-3H88V44.6z"/>
</g>
</svg>
