<?xml version="1.0" encoding="utf-8"?>
<!-- Generator: Adobe Illustrator 21.0.2, SVG Export Plug-In . SVG Version: 6.00 Build 0)  -->
<svg version="1.1" id="Layer_1" xmlns="http://www.w3.org/2000/svg" xmlns:xlink="http://www.w3.org/1999/xlink" x="0px" y="0px"
	 viewBox="0 0 461.9 359" style="enable-background:new 0 0 461.9 359;" xml:space="preserve">
<style type="text/css">
	.st0{fill:#FFFFFF;}
	.st1{fill:#F99F38;}
	.st2{fill:#D3D98E;}
	.st3{fill:#B3C022;}
	.st4{fill:#C8D068;}
	.st5{fill:#FBB568;}
	.st6{fill:#FDC689;}
	.st7{fill:#005DAC;}
</style>
<g>
	<g>
		<g>
			<path class="st0" d="M50.4,170.2V181c-5.3-4.4-10.8-6.7-16.5-6.7c-6.2,0-11.5,2.2-15.8,6.7s-6.5,9.9-6.5,16.4
				c0,6.4,2.2,11.8,6.5,16.1c4.3,4.4,9.6,6.6,15.8,6.6c3.2,0,6-0.5,8.2-1.6c1.3-0.5,2.6-1.2,3.9-2.1c1.4-0.9,2.8-2,4.3-3.2v11.1
				c-5.2,3-10.8,4.5-16.5,4.5c-8.7,0-16.1-3-22.2-9.1s-9.2-13.5-9.2-22.1c0-7.7,2.6-14.6,7.7-20.7c6.3-7.4,14.4-11.1,24.4-11.1
				C40.1,165.8,45.3,167.2,50.4,170.2z"/>
			<path class="st0" d="M72.9,190.7h26.2V167h9.2v60.8h-9.2v-28.4H72.9v28.4h-9.2V167h9.2V190.7z"/>
			<path class="st0" d="M132,167v60.8h-9.2V167H132z"/>
			<path class="st0" d="M155.8,167v52.2h17.9v8.6h-27V167H155.8z"/>
			<path class="st0" d="M182.3,227.7V167h12.8c6.1,0,10.9,0.6,14.5,1.8c3.8,1.2,7.3,3.2,10.4,6c6.3,5.7,9.4,13.2,9.4,22.6
				c0,9.3-3.3,16.9-9.8,22.7c-3.3,2.9-6.7,4.9-10.3,6c-3.4,1.1-8.1,1.7-14.3,1.7h-12.7V227.7z M191.5,219.1h4.1
				c4.1,0,7.5-0.4,10.3-1.3c2.7-0.9,5.2-2.4,7.4-4.4c4.5-4.1,6.8-9.5,6.8-16.1c0-6.7-2.2-12.1-6.7-16.2c-4-3.7-9.9-5.5-17.8-5.5
				h-4.1V219.1z"/>
			<path class="st0" d="M261.4,201.8l18.8,25.9H269l-17.4-24.9H250v24.9h-9.2V167h10.7c8,0,13.8,1.5,17.4,4.5
				c3.9,3.4,5.9,7.8,5.9,13.3c0,4.3-1.2,8-3.7,11.1C268.7,199,265.5,201,261.4,201.8z M250,194.9h2.9c8.7,0,13-3.3,13-10
				c0-6.2-4.2-9.3-12.7-9.3H250V194.9z"/>
			<path class="st0" d="M322.9,175.6h-24.4v14.6h23.7v8.6h-23.7v20.3h24.4v8.6h-33.5V167h33.5V175.6z"/>
			<path class="st0" d="M335,227.7v-64.9l44.3,46.4V167h9.2v64.5l-44.3-46.2v42.5H335V227.7z"/>
			<path class="st0" d="M409.6,164.3l7.9,3.1l-11.2,22.5l-6-2.5L409.6,164.3z"/>
			<path class="st0" d="M458.9,176l-7.4,4.4c-1.4-2.4-2.7-4-4-4.7c-1.3-0.8-3-1.3-5.1-1.3c-2.5,0-4.7,0.7-6.3,2.2
				c-1.7,1.4-2.5,3.2-2.5,5.4c0,3,2.2,5.4,6.6,7.2l6.1,2.5c4.9,2,8.5,4.4,10.8,7.3c2.3,2.9,3.4,6.4,3.4,10.6
				c0,5.6-1.9,10.2-5.6,13.9c-3.8,3.7-8.4,5.5-14,5.5c-5.3,0-9.6-1.6-13.1-4.7c-3.4-3.1-5.5-7.5-6.3-13.2l9.3-2
				c0.4,3.6,1.2,6,2.2,7.4c1.9,2.6,4.6,3.9,8.3,3.9c2.9,0,5.2-1,7.1-2.9s2.8-4.3,2.8-7.3c0-1.2-0.2-2.3-0.5-3.2
				c-0.3-1-0.8-1.9-1.5-2.7s-1.6-1.6-2.7-2.3s-2.4-1.4-3.9-2.1l-5.9-2.4c-8.3-3.5-12.5-8.7-12.5-15.4c0-4.6,1.7-8.4,5.2-11.4
				c3.5-3.1,7.8-4.6,13-4.6C449.5,165.8,454.9,169.2,458.9,176z"/>
			<path class="st0" d="M0,319.9l16.6-84.8l27.1,61.3l28-61.3l14.9,84.8H74.4l-7.6-47.6l-23.3,51.2l-22.7-51.3l-8.5,47.7L0,319.9
				L0,319.9z"/>
			<path class="st0" d="M115.2,241v47.5c0,6.8,1.1,11.7,3.3,14.9c3.3,4.5,8,6.8,13.9,6.8c6,0,10.7-2.3,14-6.8c2.2-3,3.3-8,3.3-14.9
				V241h11.9v50.8c0,8.3-2.6,15.2-7.8,20.5c-5.8,6-13,9-21.5,9s-15.6-3-21.4-9c-5.2-5.4-7.8-12.2-7.8-20.5V241H115.2z"/>
			<path class="st0" d="M225.2,252.7l-9.7,5.7c-1.8-3.1-3.5-5.2-5.2-6.1c-1.7-1.1-3.9-1.6-6.6-1.6c-3.3,0-6,0.9-8.2,2.8
				c-2.2,1.8-3.3,4.2-3.3,7c0,3.9,2.9,7,8.6,9.3l7.9,3.2c6.4,2.6,11.1,5.8,14,9.5c3,3.7,4.4,8.3,4.4,13.7c0,7.3-2.4,13.3-7.3,18
				c-4.9,4.8-10.9,7.2-18.1,7.2c-6.8,0-12.5-2-17-6.1c-4.4-4.1-7.1-9.8-8.2-17.1l12.1-2.7c0.5,4.6,1.5,7.8,2.9,9.6
				c2.5,3.4,6,5.1,10.7,5.1c3.7,0,6.8-1.2,9.2-3.7c2.5-2.5,3.7-5.6,3.7-9.4c0-1.5-0.2-2.9-0.6-4.2c-0.4-1.3-1.1-2.4-2-3.5
				s-2.1-2.1-3.5-3s-3.1-1.8-5.1-2.7l-7.6-3.2c-10.8-4.6-16.2-11.2-16.2-20c0-5.9,2.3-10.9,6.8-14.9s10.2-6,16.9-6
				C213,239.5,220.1,243.9,225.2,252.7z"/>
			<path class="st0" d="M285.1,252.2h-31.6v18.9h30.7v11.2h-30.7v26.4h31.6v11.2h-43.5V241h43.5V252.2z"/>
			<path class="st0" d="M312.6,241v47.5c0,6.8,1.1,11.7,3.3,14.9c3.3,4.5,8,6.8,13.9,6.8c6,0,10.7-2.3,14-6.8c2.2-3,3.3-8,3.3-14.9
				V241H359v50.8c0,8.3-2.6,15.2-7.8,20.5c-5.8,6-13,9-21.5,9s-15.6-3-21.4-9c-5.2-5.4-7.8-12.2-7.8-20.5V241H312.6z"/>
			<path class="st0" d="M375.3,319.9l16.6-84.8l27.1,61.3l28-61.3l14.9,84.8h-12.2l-7.6-47.6l-23.3,51.2l-22.7-51.3l-8.5,47.7
				L375.3,319.9L375.3,319.9z"/>
		</g>
	</g>
	<g>
		<path class="st1" d="M94.3,137.9h11.4v0.9c0,2.1-0.2,3.9-0.7,5.5c-0.5,1.5-1.3,2.9-2.4,4.2c-2.6,2.9-5.8,4.3-9.8,4.3
			c-3.9,0-7.2-1.4-9.9-4.2c-2.8-2.8-4.1-6.2-4.1-10.1c0-4,1.4-7.4,4.2-10.2c2.8-2.8,6.2-4.2,10.2-4.2c2.2,0,4.2,0.4,6,1.3
			s3.6,2.3,5.3,4.3l-3,2.8c-2.3-3-5-4.5-8.3-4.5c-2.9,0-5.4,1-7.4,3s-3,4.5-3,7.4c0,3.1,1.1,5.6,3.3,7.6c2.1,1.8,4.3,2.8,6.7,2.8
			c2.1,0,3.9-0.7,5.5-2.1c1.6-1.4,2.5-3.1,2.7-5h-6.9v-3.8H94.3z"/>
		<path class="st1" d="M127.6,140.5l8.6,11.8h-5.1l-7.9-11.3h-0.8v11.3h-4.2v-27.6h4.9c3.7,0,6.3,0.7,7.9,2.1
			c1.8,1.5,2.7,3.5,2.7,6.1c0,2-0.6,3.6-1.7,5C131,139.2,129.5,140.1,127.6,140.5z M122.5,137.3h1.3c3.9,0,5.9-1.5,5.9-4.5
			c0-2.8-1.9-4.2-5.8-4.2h-1.5v8.7H122.5z"/>
		<path class="st1" d="M162.9,128.5h-11.1v6.6h10.8v3.9h-10.8v9.2h11.1v3.9h-15.2v-27.6h15.2V128.5z"/>
		<path class="st1" d="M191,128.5h-11.1v6.6h10.8v3.9h-10.8v9.2H191v3.9h-15.2v-27.6H191V128.5z"/>
		<path class="st1" d="M203.8,152.2v-29.5l20.2,21.1v-19.2h4.2v29.3l-20.2-21v19.3L203.8,152.2L203.8,152.2z"/>
		<path class="st1" d="M257.7,128.7l-3.4,2c-0.6-1.1-1.2-1.8-1.8-2.1c-0.6-0.4-1.4-0.6-2.3-0.6c-1.2,0-2.1,0.3-2.9,1
			c-0.8,0.6-1.1,1.5-1.1,2.4c0,1.3,1,2.4,3,3.3l2.8,1.1c2.2,0.9,3.9,2,4.9,3.3c1,1.3,1.6,2.9,1.6,4.8c0,2.5-0.8,4.6-2.5,6.3
			c-1.7,1.7-3.8,2.5-6.4,2.5c-2.4,0-4.4-0.7-5.9-2.1c-1.5-1.4-2.5-3.4-2.9-6l4.2-0.9c0.2,1.6,0.5,2.7,1,3.4c0.9,1.2,2.1,1.8,3.8,1.8
			c1.3,0,2.4-0.4,3.2-1.3s1.3-2,1.3-3.3c0-0.5-0.1-1-0.2-1.5c-0.1-0.4-0.4-0.9-0.7-1.2c-0.3-0.4-0.7-0.7-1.2-1.1
			c-0.5-0.3-1.1-0.6-1.8-0.9l-2.7-1.1c-3.8-1.6-5.7-3.9-5.7-7c0-2.1,0.8-3.8,2.4-5.2c1.6-1.4,3.6-2.1,5.9-2.1
			C253.4,124.1,255.9,125.6,257.7,128.7z"/>
		<path class="st1" d="M270.8,152.2v-27.6h4.2c1.8,0,3.3,0.1,4.4,0.4s2,0.8,2.8,1.4c0.8,0.7,1.4,1.6,1.8,2.6
			c0.5,1.1,0.7,2.1,0.7,3.2c0,2-0.8,3.7-2.3,5c1.5,0.5,2.6,1.4,3.5,2.6c0.9,1.2,1.3,2.7,1.3,4.3c0,2.2-0.8,4-2.3,5.5
			c-0.9,0.9-2,1.6-3.1,1.9c-1.3,0.3-2.8,0.5-4.7,0.5h-6.3V152.2z M274.9,136.5h1.3c1.6,0,2.7-0.3,3.4-1c0.7-0.7,1.1-1.7,1.1-3
			s-0.4-2.3-1.1-3s-1.8-1-3.2-1h-1.5L274.9,136.5L274.9,136.5z M274.9,148.3h2.6c1.9,0,3.3-0.4,4.2-1.1c0.9-0.8,1.4-1.8,1.4-3
			s-0.4-2.2-1.3-3s-2.4-1.2-4.7-1.2H275v8.3H274.9z"/>
		<path class="st1" d="M298.2,138.3c0-3.9,1.4-7.2,4.3-10c2.8-2.8,6.3-4.2,10.2-4.2c3.9,0,7.3,1.4,10.1,4.2
			c2.8,2.8,4.2,6.2,4.2,10.1c0,4-1.4,7.3-4.3,10.1s-6.3,4.2-10.3,4.2c-3.6,0-6.8-1.2-9.6-3.7C299.8,146.3,298.2,142.7,298.2,138.3z
			 M302.4,138.3c0,3.1,1,5.6,3.1,7.5c2,2,4.4,2.9,7.1,2.9c2.9,0,5.3-1,7.3-3s3-4.5,3-7.4s-1-5.4-3-7.4s-4.4-3-7.3-3s-5.3,1-7.3,3
			C303.4,133,302.4,135.4,302.4,138.3z"/>
		<path class="st1" d="M349,140.5l8.6,11.8h-5.1l-7.9-11.3h-0.8v11.3h-4.2v-27.6h4.9c3.7,0,6.3,0.7,7.9,2.1c1.8,1.5,2.7,3.5,2.7,6.1
			c0,2-0.6,3.6-1.7,5C352.3,139.2,350.9,140.1,349,140.5z M343.8,137.3h1.3c3.9,0,5.9-1.5,5.9-4.5c0-2.8-1.9-4.2-5.8-4.2h-1.5v8.7
			H343.8z"/>
		<path class="st1" d="M367,138.3c0-3.9,1.4-7.2,4.3-10c2.8-2.8,6.3-4.2,10.2-4.2c3.9,0,7.3,1.4,10.1,4.2c2.8,2.8,4.2,6.2,4.2,10.1
			c0,4-1.4,7.3-4.3,10.1s-6.3,4.2-10.3,4.2c-3.6,0-6.8-1.2-9.6-3.7C368.6,146.3,367,142.7,367,138.3z M371.3,138.3
			c0,3.1,1,5.6,3.1,7.5c2,2,4.4,2.9,7.1,2.9c2.9,0,5.3-1,7.3-3s3-4.5,3-7.4s-1-5.4-3-7.4s-4.4-3-7.3-3s-5.3,1-7.3,3
			C372.2,133,371.3,135.4,371.3,138.3z"/>
	</g>
	<g>
		<g>
			<path class="st0" d="M89,347.7c0,2,1.5,3.7,3.6,3.7c1.6,0,2.6-1,3.3-2.3l1.6,0.9c-1.1,2-2.8,3.1-5.1,3.1c-3.3,0-5.4-2.5-5.4-5.7
				c0-3.3,1.9-5.9,5.3-5.9c3.5,0,5.4,2.9,5.2,6.2L89,347.7L89,347.7z M95.6,346.1c-0.3-1.6-1.6-2.9-3.2-2.9s-3.1,1.3-3.3,2.9H95.6z"
				/>
			<path class="st0" d="M106.1,349.2l3.3-7.4h2.1l-5.4,11.7l-5.4-11.7h2.1L106.1,349.2z"/>
			<path class="st0" d="M116.6,347.7c0,2,1.5,3.7,3.6,3.7c1.6,0,2.6-1,3.3-2.3l1.6,0.9c-1.1,2-2.8,3.1-5.1,3.1
				c-3.3,0-5.4-2.5-5.4-5.7c0-3.3,1.9-5.9,5.3-5.9c3.5,0,5.4,2.9,5.2,6.2L116.6,347.7L116.6,347.7z M123.3,346.1
				c-0.3-1.6-1.6-2.9-3.2-2.9s-3.1,1.3-3.3,2.9H123.3z"/>
			<path class="st0" d="M131.9,343L131.9,343c0.7-0.9,1.3-1.5,2.5-1.5c0.6,0,1.1,0.2,1.7,0.5l-0.9,1.7c-0.4-0.3-0.6-0.5-1.1-0.5
				c-2.1,0-2.2,2.6-2.2,4.1v5.5H130v-11h1.9V343z"/>
			<path class="st0" d="M139.4,341.8h2.2l3.9,7.9l3.6-7.9h2.1L143,359h-2.1l3.6-7.2L139.4,341.8z"/>
			<path class="st0" d="M157.2,352.8h-1.9v-9.3h-1.1v-1.7h1.1v-4h1.9v4h2v1.7h-2V352.8z"/>
			<path class="st0" d="M165,333.5v9.6l0,0c0.8-1.1,1.8-1.6,3.1-1.6c3,0,3.7,2.2,3.7,4.8v6.5h-1.9v-6.2c0-1.8-0.1-3.4-2.3-3.4
				c-2.6,0-2.7,2.4-2.7,4.3v5.2H163v-19.3h2V333.5z"/>
			<path class="st0" d="M180.5,337.7c0,0.7-0.6,1.3-1.3,1.3s-1.3-0.6-1.3-1.3c0-0.7,0.6-1.3,1.3-1.3
				C179.9,336.4,180.5,337,180.5,337.7z M180.1,352.8h-1.9v-11h1.9V352.8z"/>
			<path class="st0" d="M188.2,343.2L188.2,343.2c0.8-1.1,1.8-1.6,3.2-1.6c3,0,3.7,2.2,3.7,4.8v6.5h-1.9v-6.2c0-1.8-0.1-3.4-2.3-3.4
				c-2.6,0-2.7,2.4-2.7,4.3v5.2h-1.9v-11h1.9V343.2z"/>
			<path class="st0" d="M210.9,352.3c0,1.8,0,3.3-1.1,4.7c-1,1.3-2.6,1.9-4.3,1.9c-3.1,0-5.3-1.9-5.4-5.1h1.9c0,2,1.5,3.3,3.5,3.3
				c2.9,0,3.5-2.1,3.5-4.6v-1.3l0,0c-0.9,1.1-2.3,1.8-3.8,1.8c-3.2,0-5.2-2.7-5.2-5.8c0-3.1,2.1-5.8,5.3-5.8c1.5,0,2.9,0.7,3.7,1.9
				l0,0v-1.6h1.9L210.9,352.3L210.9,352.3z M201.9,347.2c0,2.2,1.3,4.2,3.6,4.2c2.4,0,3.7-1.9,3.7-4.2c0-2.2-1.4-4-3.7-4
				C203.3,343.3,201.9,345.2,201.9,347.2z"/>
			<path class="st0" d="M221,336.2c0,1.3-1.1,2.4-2.4,2.4c-1.3,0-2.4-1.1-2.4-2.4s1.1-2.4,2.4-2.4C220,333.8,221,334.9,221,336.2z
				 M220.8,352.8h-4.3v-12h4.3V352.8z"/>
			<path class="st0" d="M230.2,342.3L230.2,342.3c1.1-1.3,2.3-1.9,3.8-1.9c1.7,0,3.2,0.7,4.1,2.3c0.8-1.5,2.4-2.3,4.1-2.3
				c3,0,4.1,2,4.1,4.7v7.6H242V347c0-1.2,0-3.3-1.8-3.3c-2,0-2,1.8-2,3.3v5.7H234V347c0-1.3,0-3.4-1.9-3.4s-1.9,2-1.9,3.4v5.7h-4.3
				v-12h4.3L230.2,342.3L230.2,342.3z"/>
			<path class="st0" d="M264.5,352.8h-4.3v-1.3l0,0c-0.7,1.2-2.2,1.7-3.6,1.7c-3.6,0-6.1-3-6.1-6.4s2.5-6.4,6-6.4
				c1.4,0,2.8,0.5,3.7,1.6v-1.2h4.3V352.8z M254.9,346.8c0,1.5,1,2.7,2.7,2.7s2.7-1.2,2.7-2.7s-1-2.7-2.7-2.7
				C255.9,344.1,254.9,345.4,254.9,346.8z"/>
			<path class="st0" d="M282.8,351.7c0,5.1-2.5,7.2-6.9,7.2c-2.8,0-6.5-1.4-6.8-4.6h4.8c0.1,0.4,0.4,0.7,0.8,0.9
				c0.4,0.2,0.8,0.3,1.2,0.3c2.3,0,2.7-1.5,2.7-3.4v-0.6c-1.1,1.1-2.2,1.6-3.8,1.6c-3.5,0-5.9-2.7-5.9-6.1c0-3.5,2.5-6.5,6.1-6.5
				c1.4,0,2.7,0.5,3.5,1.7l0,0v-1.3h4.3L282.8,351.7L282.8,351.7z M273.3,346.7c0,1.5,1,2.7,2.7,2.7s2.7-1.2,2.7-2.7s-1-2.7-2.7-2.7
				S273.3,345.3,273.3,346.7z"/>
			<path class="st0" d="M292.4,336.2c0,1.3-1.1,2.4-2.4,2.4s-2.4-1.1-2.4-2.4s1.1-2.4,2.4-2.4C291.3,333.8,292.4,334.9,292.4,336.2z
				 M292.1,352.8h-4.3v-12h4.3V352.8z"/>
			<path class="st0" d="M301.5,342.4L301.5,342.4c1-1.4,2.2-1.9,3.9-1.9c3.2,0,4.5,2,4.5,5v7.4h-4.3V347c0-1.1,0.2-3.2-1.9-3.2
				c-1.7,0-2.2,1.3-2.2,2.8v6.2h-4.3v-12h4.3V342.4z"/>
			<path class="st0" d="M328.2,352.8h-4.3v-1.3l0,0c-0.7,1.2-2.2,1.7-3.6,1.7c-3.6,0-6.1-3-6.1-6.4s2.5-6.4,6-6.4
				c1.4,0,2.8,0.5,3.7,1.6v-1.2h4.3V352.8z M318.6,346.8c0,1.5,1,2.7,2.7,2.7s2.7-1.2,2.7-2.7s-1-2.7-2.7-2.7
				C319.6,344.1,318.6,345.4,318.6,346.8z"/>
			<path class="st0" d="M333.2,333.4h4.3v8.6c0.9-1.1,2.3-1.6,3.7-1.6c3.6,0,6,2.9,6,6.4s-2.5,6.4-6.1,6.4c-1.4,0-2.9-0.5-3.6-1.7
				l0,0v1.3h-4.3V333.4z M337.3,346.8c0,1.5,1,2.7,2.7,2.7s2.7-1.2,2.7-2.7s-1-2.7-2.7-2.7S337.3,345.4,337.3,346.8z"/>
			<path class="st0" d="M355.9,352.8h-4.3v-19.4h4.3V352.8z"/>
			<path class="st0" d="M373.3,347.5h-9c0,1.7,0.9,2.7,2.7,2.7c0.9,0,1.6-0.3,2-1.1h4.1c-0.3,1.4-1.2,2.4-2.3,3.1
				c-1.1,0.7-2.5,1-3.8,1c-4,0-6.9-2.2-6.9-6.4c0-4,2.7-6.4,6.6-6.4c4.2,0,6.6,2.6,6.6,6.7L373.3,347.5L373.3,347.5z M369.4,345.1
				c-0.2-1.1-1.3-1.9-2.4-1.9c-1.2,0-2.3,0.7-2.5,1.9H369.4z"/>
		</g>
	</g>
	<g>
		<path class="st2" d="M305.9,100.1c0-5.6-11.1-10.2-24.1-10.2s-23,4.6-23,10.2s10.5,10.2,23.6,10.2
			C295.4,110.3,305.9,105.7,305.9,100.1z"/>
	</g>
	<g>
		<path class="st3" d="M198.9,80.4c0-3.2-6.6-5.8-14.1-5.8s-13,2.6-13,5.8c0,3.2,6.1,5.8,13.5,5.8S198.9,83.6,198.9,80.4z"/>
	</g>
	<g>
		<g>
			<path class="st4" d="M345.2,91.7c0-3.5-7.2-6.4-15.4-6.4c-8.2,0-14.3,2.9-14.3,6.4s6.7,6.4,14.9,6.4S345.2,95.2,345.2,91.7z"/>
		</g>
		<g>
			<path class="st4" d="M252.6,87.7c0-4.3-8.7-7.8-18.7-7.8s-17.6,3.5-17.6,7.8s8.1,7.8,18.1,7.8S252.6,92,252.6,87.7z"/>
		</g>
		<g>
			<path class="st4" d="M161.5,88.9c0-3.1-6.3-5.6-13.4-5.6c-7.1,0-12.3,2.5-12.3,5.6s5.8,5.6,12.9,5.6
				C155.8,94.5,161.5,92,161.5,88.9z"/>
		</g>
	</g>
	<g>
		<circle class="st1" cx="265.4" cy="22.7" r="20.8"/>
	</g>
	<g>
		<circle class="st1" cx="307.7" cy="39.8" r="13.1"/>
	</g>
	<g>
		<circle class="st1" cx="223.1" cy="48" r="16"/>
	</g>
	<g>
		<circle class="st1" cx="180.8" cy="61.8" r="11.9"/>
	</g>
	<g>
		<circle class="st1" cx="145" cy="45.6" r="11.4"/>
	</g>
	<g>
		<g>
			<ellipse class="st5" cx="144.5" cy="43.2" rx="8.8" ry="8.6"/>
		</g>
		<g>
			<g>
				<ellipse class="st5" cx="181.3" cy="58.7" rx="9.1" ry="8.6"/>
			</g>
			<g>
				<ellipse class="st5" cx="308.9" cy="37.2" rx="9.3" ry="9.8"/>
			</g>
			<g>
				<ellipse class="st5" cx="223.8" cy="44.2" rx="12.3" ry="11.7"/>
			</g>
			<g>
				<ellipse class="st5" cx="264.9" cy="18.9" rx="15.6" ry="16.6"/>
			</g>
		</g>
	</g>
	<g>
		<g>
			<ellipse class="st6" cx="146.9" cy="40.9" rx="6.5" ry="6.3"/>
		</g>
		<g>
			<ellipse class="st6" cx="183.8" cy="56.4" rx="6.7" ry="6.3"/>
		</g>
		<g>
			<ellipse class="st6" cx="311.4" cy="34.6" rx="6.8" ry="7.2"/>
		</g>
		<g>
			<ellipse class="st6" cx="227.1" cy="41.1" rx="9" ry="8.6"/>
		</g>
		<g>
			<ellipse class="st6" cx="269.1" cy="14.4" rx="11.4" ry="12.2"/>
		</g>
	</g>
	<g>
		<path class="st7" d="M143.3,56.7c-6.7,0-12.2-5.5-12.2-12.2s5.5-12.2,12.2-12.2s12.2,5.5,12.2,12.2S150.1,56.7,143.3,56.7z
			 M143.3,33.9c-5.8,0-10.6,4.7-10.6,10.6S137.5,55,143.3,55s10.6-4.7,10.6-10.6S149.2,33.9,143.3,33.9z"/>
	</g>
	<g>
		<path class="st7" d="M179.1,73.5c-7,0-12.7-5.7-12.7-12.7s5.7-12.7,12.7-12.7s12.7,5.7,12.7,12.7
			C191.9,67.8,186.1,73.5,179.1,73.5z M179.1,49.6c-6.1,0-11.1,5-11.1,11.1s5,11.1,11.1,11.1s11.1-5,11.1-11.1
			C190.2,54.6,185.2,49.6,179.1,49.6z"/>
	</g>
	<g>
		<path class="st7" d="M221.4,63.7c-9.3,0-16.8-7.5-16.8-16.8s7.5-16.8,16.8-16.8s16.8,7.5,16.8,16.8S230.7,63.7,221.4,63.7z
			 M221.4,31.7c-8.4,0-15.2,6.8-15.2,15.2s6.8,15.2,15.2,15.2s15.2-6.8,15.2-15.2S229.8,31.7,221.4,31.7z"/>
	</g>
	<g>
		<path class="st7" d="M263.7,43.2c-11.9,0-21.6-9.7-21.6-21.6S251.8,0,263.7,0c11.9,0,21.6,9.7,21.6,21.6S275.6,43.2,263.7,43.2z
			 M263.7,1.6c-11,0-20,9-20,20s9,20,20,20s20-9,20-20S274.7,1.6,263.7,1.6z"/>
	</g>
	<g>
		<path class="st7" d="M306,52.7c-7.7,0-13.9-6.3-13.9-13.9s6.3-13.9,13.9-13.9c7.7,0,13.9,6.3,13.9,13.9S313.7,52.7,306,52.7z
			 M306,26.5c-6.8,0-12.3,5.5-12.3,12.3s5.5,12.3,12.3,12.3s12.3-5.5,12.3-12.3S312.8,26.5,306,26.5z"/>
	</g>
</g>
</svg>
