<?xml version="1.0" encoding="utf-8"?>
<!-- Generator: Adobe Illustrator 21.0.0, SVG Export Plug-In . SVG Version: 6.00 Build 0)  -->
<svg version="1.1" id="Layer_1" xmlns="http://www.w3.org/2000/svg" xmlns:xlink="http://www.w3.org/1999/xlink" x="0px" y="0px"
	 viewBox="0 0 800 800" style="enable-background:new 0 0 800 800;" xml:space="preserve">
<style type="text/css">
	.st0{fill:#FFFFFF;}
</style>
<g>
	<g>
		<g>
			<path class="st0" d="M135.9,365.2v-73h20.8c0.5,0,1,0,1.4,0c9.2,0,16.4,0.1,22.2,3.8c6.4,4.1,10.2,11.6,10.2,21
				c0,9.7-3.6,16.9-10.1,20.8c-5,3-10.6,3.3-17.5,3.3c-1.5,0-3.2,0-4.8,0h-3.6v24.1H135.9z M158.4,325.1c8.5,0,12.9-1.6,12.9-8.7
				c0-7-4.6-8.5-12.7-8.5h-4v17.2H158.4z"/>
			<path class="st0" d="M196.9,292.2h19.9v56h24.7v17.1h-44.6V292.2z"/>
		</g>
	</g>
	<g>
		<path class="st0" d="M273.7,292.2h24.9l25.2,73H304l-3.7-13.1h-28.3l-3.8,13.1h-19.8L273.7,292.2z M296.2,338l-7.5-24.1
			c-0.3-1.1-1.1-4.4-2.5-9.8c-1.3,5.4-2.2,8.7-2.6,9.8l-7.4,24.1H296.2z"/>
		<path class="st0" d="M342.7,331.9l-25.6-39.7h23l9.8,18.8c0.5,1,1.7,2.9,2.5,6.2c0.7-3.3,1.9-5.1,2.6-6.2l9.7-18.8h22.9
			l-25.5,39.7v33.3h-19.2V331.9z"/>
	</g>
	<g>
		<g>
			<path class="st0" d="M198.1,253.5h19.9v1.6c0,3.6-0.4,6.8-1.3,9.6c-0.8,2.6-2.2,5-4.2,7.2c-4.5,5-10.1,7.5-17,7.5
				c-6.7,0-12.5-2.4-17.3-7.3c-4.8-4.9-7.2-10.7-7.2-17.6c0-7,2.4-12.9,7.3-17.8c4.9-4.9,10.8-7.3,17.8-7.3c3.8,0,7.3,0.8,10.5,2.3
				c3.1,1.5,6.2,4,9.2,7.5l-5.2,5c-3.9-5.3-8.8-7.9-14.4-7.9c-5.1,0-9.4,1.8-12.8,5.3c-3.4,3.4-5.2,7.8-5.2,13
				c0,5.4,1.9,9.8,5.8,13.2c3.6,3.2,7.5,4.8,11.7,4.8c3.6,0,6.8-1.2,9.6-3.6c2.8-2.4,4.4-5.3,4.8-8.7h-12V253.5z"/>
			<path class="st0" d="M234.3,230.4v48.1h-7.3v-48.1H234.3z"/>
			<path class="st0" d="M248.3,230.4l13.3,33.3l13.5-33.3h7.9l-21.6,51.7l-21.1-51.7H248.3z"/>
			<path class="st0" d="M315.6,237.2h-19.3v11.6H315v6.8h-18.7v16.1h19.3v6.8H289v-48.1h26.5V237.2z"/>
		</g>
	</g>
	<g>
		<path class="st0" d="M426.2,324.1h-16.8v11.6h16.2v6.8h-16.2v22.9h-7.3v-48.1h24V324.1z"/>
		<path class="st0" d="M432.2,341.1c0-6.8,2.5-12.6,7.4-17.4c4.9-4.9,10.9-7.3,17.8-7.3c6.9,0,12.7,2.5,17.6,7.4
			c4.9,4.9,7.4,10.8,7.4,17.7c0,6.9-2.5,12.8-7.4,17.6c-5,4.8-11,7.3-18,7.3c-6.2,0-11.8-2.2-16.7-6.5
			C434.9,355,432.2,348.8,432.2,341.1z M439.5,341.2c0,5.3,1.8,9.7,5.4,13.1c3.6,3.4,7.7,5.1,12.3,5.1c5,0,9.3-1.7,12.8-5.2
			c3.5-3.5,5.2-7.8,5.2-12.9c0-5.1-1.7-9.4-5.1-12.9c-3.4-3.5-7.6-5.2-12.6-5.2c-5,0-9.2,1.7-12.7,5.2
			C441.3,331.9,439.5,336.1,439.5,341.2z"/>
	</g>
	<g>
		<path class="st0" d="M508,344.9l14.9,20.5H514l-13.7-19.7H499v19.7h-7.3v-48.1h8.5c6.4,0,10.9,1.2,13.8,3.6
			c3.1,2.7,4.7,6.2,4.7,10.5c0,3.4-1,6.3-2.9,8.8C513.8,342.6,511.2,344.2,508,344.9z M499,339.4h2.3c6.9,0,10.3-2.6,10.3-7.9
			c0-4.9-3.3-7.4-10-7.4H499V339.4z"/>
	</g>
	<g>
		<path class="st0" d="M625.8,455.1h19.8v-34.4l26.4-41h-23.6l-10,19.4c-0.6,1.2-1.9,3.1-2.6,6.4c-0.7-3.5-2-5.4-2.5-6.4L623,379.7
			h-23.7l26.5,41V455.1z M592.4,382.6c-6.5-3.2-12.8-4.7-19.5-4.7c-22.2,0-38.3,16.8-38.3,39.5c0,22.8,16,39.5,38.3,39.5
			c6.7,0,13-1.6,19.5-4.7v-22.5c-5.5,6.1-10.8,9.1-17.4,9.1c-12,0-19.8-9.4-19.8-21c0-12.8,7.9-21.8,19.8-21.8
			c6.6,0,11.9,3,17.4,9.1V382.6z M480.3,426.9l7.6-24.9c0.3-1.2,1.3-4.5,2.6-10.1c1.4,5.6,2.2,9,2.5,10.1l7.7,24.9H480.3z
			 M451.5,455.1H472l3.9-13.5h29.2l3.8,13.5h20.5l-26-75.4h-25.7L451.5,455.1z M384.4,455.1h19.3v-29.5l17.3,29.5h23.2l-20.6-30.4
			c11-2.3,16.9-9.8,16.9-21.5c0-7.8-3-14.2-8.4-18.5c-6.4-5-14.4-5.1-24.9-5.1h-1.3h-21.5V455.1z M403.7,415.3v-19.8h4.1
			c8.5,0,12.4,2.5,12.4,10.4c0,6.6-4.1,9.4-12.8,9.4H403.7z M321.4,455.1h46.2v-16.9h-26.2v-12.8h24.7v-16.1h-24.7v-13.1h26.2v-16.6
			h-46.2V455.1z M270.8,455.1h20.6v-57.6h16.9v-17.8H254v17.8h16.8V455.1z M219.5,455.1h20.8v-75.4h-20.8V455.1z M159.7,455.1h46.1
			v-17.6h-25.5v-57.8h-20.6V455.1z"/>
	</g>
</g>
</svg>
