<?xml version="1.0" encoding="utf-8"?>
<!-- Generator: Adobe Illustrator 21.0.0, SVG Export Plug-In . SVG Version: 6.00 Build 0)  -->
<svg version="1.1" id="Layer_1" xmlns="http://www.w3.org/2000/svg" xmlns:xlink="http://www.w3.org/1999/xlink" x="0px" y="0px"
	 viewBox="0 0 800 800" style="enable-background:new 0 0 800 800;" xml:space="preserve">
<style type="text/css">
	.st0{fill:#FFFFFF;}
</style>
<g>
	<g>
		<path class="st0" d="M136.5,365.1v-73h20.8c0.5,0,1,0,1.4,0c9.2,0,16.4,0.1,22.2,3.8c6.4,4.1,10.2,11.6,10.2,21
			c0,9.7-3.6,16.9-10.1,20.8c-5,3-10.6,3.3-17.5,3.3c-1.5,0-3.2,0-4.8,0h-3.6v24.1H136.5z M158.9,324.9c8.5,0,12.9-1.6,12.9-8.7
			c0-7-4.6-8.5-12.7-8.5h-4v17.2H158.9z"/>
		<path class="st0" d="M197.4,292.1h19.9v56H242v17.1h-44.6V292.1z"/>
	</g>
</g>
<g>
	<path class="st0" d="M274.3,292.1h24.9l25.2,73h-19.8l-3.7-13.1h-28.3l-3.8,13.1H249L274.3,292.1z M296.7,337.8l-7.5-24.1
		c-0.3-1.1-1.1-4.4-2.5-9.8c-1.3,5.4-2.2,8.7-2.6,9.8l-7.4,24.1H296.7z"/>
	<path class="st0" d="M343.2,331.8l-25.6-39.7h23l9.8,18.8c0.5,1,1.7,2.9,2.5,6.2c0.7-3.3,1.9-5.1,2.6-6.2l9.7-18.8h22.9l-25.5,39.7
		v33.3h-19.2V331.8z"/>
</g>
<g>
	<g>
		<path class="st0" d="M198.6,253.3h19.9v1.6c0,3.6-0.4,6.8-1.3,9.6c-0.8,2.6-2.2,5-4.2,7.2c-4.5,5-10.1,7.5-17,7.5
			c-6.7,0-12.5-2.4-17.3-7.3c-4.8-4.9-7.2-10.7-7.2-17.6c0-7,2.4-12.9,7.3-17.8c4.9-4.9,10.8-7.3,17.8-7.3c3.8,0,7.3,0.8,10.5,2.3
			c3.1,1.5,6.2,4,9.2,7.5l-5.2,5c-3.9-5.3-8.8-7.9-14.4-7.9c-5.1,0-9.4,1.8-12.8,5.3c-3.4,3.4-5.2,7.8-5.2,13
			c0,5.4,1.9,9.8,5.8,13.2c3.6,3.2,7.5,4.8,11.7,4.8c3.6,0,6.8-1.2,9.6-3.6c2.8-2.4,4.4-5.3,4.8-8.7h-12V253.3z"/>
		<path class="st0" d="M234.9,230.3v48.1h-7.3v-48.1H234.9z"/>
		<path class="st0" d="M248.9,230.3l13.3,33.3l13.5-33.3h7.9L262,282l-21.1-51.7H248.9z"/>
		<path class="st0" d="M316.1,237.1h-19.3v11.6h18.7v6.8h-18.7v16.1h19.3v6.8h-26.5v-48.1h26.5V237.1z"/>
	</g>
</g>
<g>
	<path class="st0" d="M426.7,323.9H410v11.6h16.2v6.8H410v22.9h-7.3v-48.1h24V323.9z"/>
	<path class="st0" d="M432.8,340.9c0-6.8,2.5-12.6,7.4-17.4c4.9-4.9,10.9-7.3,17.8-7.3c6.9,0,12.7,2.5,17.6,7.4
		c4.9,4.9,7.4,10.8,7.4,17.7c0,6.9-2.5,12.8-7.4,17.6c-5,4.8-11,7.3-18,7.3c-6.2,0-11.8-2.2-16.7-6.5
		C435.5,354.8,432.8,348.6,432.8,340.9z M440.1,341c0,5.3,1.8,9.7,5.4,13.1c3.6,3.4,7.7,5.1,12.3,5.1c5,0,9.3-1.7,12.8-5.2
		c3.5-3.5,5.2-7.8,5.2-12.9c0-5.1-1.7-9.4-5.1-12.9c-3.4-3.5-7.6-5.2-12.6-5.2c-5,0-9.2,1.7-12.7,5.2
		C441.8,331.7,440.1,335.9,440.1,341z"/>
</g>
<g>
	<path class="st0" d="M508.6,344.7l14.9,20.5h-8.9l-13.7-19.7h-1.3v19.7h-7.3v-48.1h8.5c6.4,0,10.9,1.2,13.8,3.6
		c3.1,2.7,4.7,6.2,4.7,10.5c0,3.4-1,6.3-2.9,8.8C514.3,342.4,511.7,344,508.6,344.7z M499.5,339.2h2.3c6.9,0,10.3-2.6,10.3-7.9
		c0-4.9-3.3-7.4-10-7.4h-2.6V339.2z"/>
</g>
<path class="st0" d="M577.1,523.6l-9.3,15.4c8.2,7.7,16.2,11.1,26.9,11.1c17.8,0,29-10.9,29-26.7c0-14-7.4-19-20.9-22.6
	c-6.9-1.8-12.1-3-12.1-8.4c0-3.6,3.3-6.4,8.4-6.4c4.7,0,9.7,2,14.5,6l6.5-14.8c-6.6-4.6-14-6.8-22.5-6.8
	c-15.9,0-26.2,10.5-26.2,24.6c0,11.9,6.7,17.4,20.3,21c8.6,2.2,12.7,4,12.7,10.1c0,4.5-3.7,7.8-9.4,7.8
	C589.1,534,583.2,530.5,577.1,523.6 M516.3,548.1h46.3v-17.7H537v-58.1h-20.7V548.1z M458.9,548.1h46.3v-17.7h-25.6v-58.1h-20.7
	V548.1z M420.3,548.1h20.9v-75.8h-20.9V548.1z M341.9,548.1h20.5v-34l24.7,34h25.7l-30.4-38.8l28-37h-24.1l-23.9,34.4v-34.4h-20.5
	V548.1z M282.7,523.6l-9.3,15.4c8.2,7.7,16.2,11.1,26.9,11.1c17.8,0,29-10.9,29-26.7c0-14-7.4-19-20.9-22.6
	c-6.9-1.8-12.1-3-12.1-8.4c0-3.6,3.3-6.4,8.4-6.4c4.7,0,9.7,2,14.5,6l6.5-14.8c-6.6-4.6-14-6.8-22.5-6.8
	c-15.9,0-26.2,10.5-26.2,24.6c0,11.9,6.7,17.4,20.3,21c8.6,2.2,12.7,4,12.7,10.1c0,4.5-3.7,7.8-9.4,7.8
	C294.6,534,288.7,530.5,282.7,523.6"/>
<path class="st0" d="M512.9,455.3h46.3v-17.7h-25.6v-58.1h-20.7V455.3z M455.3,427l7.6-25c0.3-1.2,1.3-4.6,2.6-10.2
	c1.4,5.6,2.2,9,2.5,10.2l7.7,25H455.3z M426.4,455.3H447l3.9-13.6h29.4l3.8,13.6h20.6l-26.2-75.8h-25.9L426.4,455.3z M397.3,455.3
	h20.9v-75.8h-20.9V455.3z M382.9,382.5c-6.6-3.2-12.8-4.8-19.6-4.8c-22.4,0-38.5,16.8-38.5,39.7c0,22.9,16.1,39.7,38.5,39.7
	c6.8,0,13-1.6,19.6-4.8v-22.6c-5.5,6.1-10.8,9.1-17.5,9.1c-12.1,0-19.9-9.4-19.9-21.1c0-12.8,7.9-21.9,19.9-21.9
	c6.7,0,12,3,17.5,9.1V382.5z M314.6,417.6c0-10.7-4-20.6-11.8-28.1c-7.6-7.4-18.1-11.7-28.7-11.7s-21,4.2-28.6,11.7
	c-7.7,7.5-11.9,17.3-11.9,28.1c0,12.2,5.2,23,14.7,30.6c7.3,5.8,16.5,9.1,25.7,9.1c10.6,0,21-4.1,28.7-11.7
	C310.5,438.2,314.6,428.4,314.6,417.6 M274.1,439.8c-12.1,0-19.8-9.7-19.8-22.3c0-12.4,8.2-22.3,19.8-22.3c11.5,0,19.8,10,19.8,22.3
	C293.9,430,285.9,439.8,274.1,439.8 M177.6,430.8l-9.3,15.4c8.2,7.7,16.2,11.1,26.9,11.1c17.8,0,29-10.9,29-26.7
	c0-14-7.4-19-20.9-22.6c-6.9-1.8-12.1-3-12.1-8.4c0-3.6,3.3-6.4,8.4-6.4c4.7,0,9.7,2,14.5,6l6.5-14.8c-6.6-4.6-14-6.8-22.5-6.8
	c-15.9,0-26.2,10.5-26.2,24.6c0,11.9,6.7,17.4,20.3,21c8.6,2.2,12.7,4,12.7,10.1c0,4.5-3.7,7.8-9.4,7.8
	C189.6,441.2,183.6,437.7,177.6,430.8"/>
</svg>
