<?xml version="1.0" encoding="utf-8"?>
<!-- Generator: Adobe Illustrator 21.0.0, SVG Export Plug-In . SVG Version: 6.00 Build 0)  -->
<svg version="1.1" id="Layer_1" xmlns="http://www.w3.org/2000/svg" xmlns:xlink="http://www.w3.org/1999/xlink" x="0px" y="0px"
	 viewBox="0 0 800 800" style="enable-background:new 0 0 800 800;" xml:space="preserve">
<style type="text/css">
	.st0{fill:#FFFFFF;}
</style>
<g>
	<g>
		<path class="st0" d="M159.2,377v-73H180c0.5,0,1,0,1.4,0c9.2,0,16.4,0.1,22.2,3.8c6.4,4.1,10.2,11.6,10.2,21
			c0,9.7-3.6,16.9-10.1,20.8c-5,3-10.6,3.3-17.5,3.3c-1.5,0-3.2,0-4.8,0h-3.6V377H159.2z M181.7,336.9c8.5,0,12.9-1.6,12.9-8.7
			c0-7-4.6-8.5-12.7-8.5h-4v17.2H181.7z"/>
		<path class="st0" d="M220.2,304h19.9v56h24.7V377h-44.6V304z"/>
	</g>
</g>
<g>
	<path class="st0" d="M297,304h24.9l25.2,73h-19.8l-3.7-13.1h-28.3l-3.8,13.1h-19.8L297,304z M319.5,349.7l-7.5-24.1
		c-0.3-1.1-1.1-4.4-2.5-9.8c-1.3,5.4-2.2,8.7-2.6,9.8l-7.4,24.1H319.5z"/>
	<path class="st0" d="M366,343.7L340.3,304h23l9.8,18.8c0.5,1,1.7,2.9,2.5,6.2c0.7-3.3,1.9-5.1,2.6-6.2l9.7-18.8h22.9l-25.5,39.7
		V377H366V343.7z"/>
</g>
<g>
	<g>
		<path class="st0" d="M221.3,265.2h19.9v1.6c0,3.6-0.4,6.8-1.3,9.6c-0.8,2.6-2.2,5-4.2,7.2c-4.5,5-10.1,7.5-17,7.5
			c-6.7,0-12.5-2.4-17.3-7.3c-4.8-4.9-7.2-10.7-7.2-17.6c0-7,2.4-12.9,7.3-17.8c4.9-4.9,10.8-7.3,17.8-7.3c3.8,0,7.3,0.8,10.5,2.3
			c3.1,1.5,6.2,4,9.2,7.5l-5.2,5c-3.9-5.3-8.8-7.9-14.4-7.9c-5.1,0-9.4,1.8-12.8,5.3c-3.4,3.4-5.2,7.8-5.2,13
			c0,5.4,1.9,9.8,5.8,13.2c3.6,3.2,7.5,4.8,11.7,4.8c3.6,0,6.8-1.2,9.6-3.6c2.8-2.4,4.4-5.3,4.8-8.7h-12V265.2z"/>
		<path class="st0" d="M257.6,242.2v48.1h-7.3v-48.1H257.6z"/>
		<path class="st0" d="M271.6,242.2l13.3,33.3l13.5-33.3h7.9l-21.6,51.7l-21.1-51.7H271.6z"/>
		<path class="st0" d="M338.9,249h-19.3v11.6h18.7v6.8h-18.7v16.1h19.3v6.8h-26.5v-48.1h26.5V249z"/>
	</g>
</g>
<g>
	<path class="st0" d="M449.5,335.8h-16.8v11.6h16.2v6.8h-16.2v22.9h-7.3V329h24V335.8z"/>
	<path class="st0" d="M455.5,352.8c0-6.8,2.5-12.6,7.4-17.4c4.9-4.9,10.9-7.3,17.8-7.3c6.9,0,12.7,2.5,17.6,7.4
		c4.9,4.9,7.4,10.8,7.4,17.7c0,6.9-2.5,12.8-7.4,17.6c-5,4.8-11,7.3-18,7.3c-6.2,0-11.8-2.2-16.7-6.5
		C458.2,366.8,455.5,360.5,455.5,352.8z M462.8,352.9c0,5.3,1.8,9.7,5.4,13.1c3.6,3.4,7.7,5.1,12.3,5.1c5,0,9.3-1.7,12.8-5.2
		c3.5-3.5,5.2-7.8,5.2-12.9c0-5.1-1.7-9.4-5.1-12.9c-3.4-3.5-7.6-5.2-12.6-5.2c-5,0-9.2,1.7-12.7,5.2
		C464.5,343.6,462.8,347.8,462.8,352.9z"/>
</g>
<g>
	<path class="st0" d="M531.3,356.6l14.9,20.5h-8.9l-13.7-19.7h-1.3v19.7H515V329h8.5c6.4,0,10.9,1.2,13.8,3.6
		c3.1,2.7,4.7,6.2,4.7,10.5c0,3.4-1,6.3-2.9,8.8C537.1,354.3,534.5,355.9,531.3,356.6z M522.2,351.1h2.3c6.9,0,10.3-2.6,10.3-7.9
		c0-4.9-3.3-7.4-10-7.4h-2.6V351.1z"/>
</g>
<g>
	<path class="st0" d="M527.7,537.2l-9.4,15.4c8.2,7.8,16.3,11.2,27,11.2c17.9,0,29.2-11,29.2-26.8c0-14-7.4-19-21-22.7
		c-6.9-1.8-12.1-3-12.1-8.4c0-3.6,3.3-6.4,8.4-6.4c4.7,0,9.8,2,14.6,6.1l6.5-14.9c-6.6-4.6-14-6.8-22.6-6.8
		c-16,0-26.3,10.5-26.3,24.7c0,11.9,6.7,17.5,20.4,21.1c8.6,2.2,12.8,4,12.8,10.1c0,4.5-3.7,7.9-9.5,7.9
		C539.8,547.6,533.8,544.1,527.7,537.2 M466.7,561.8h46.5V544h-25.7v-58.3h-20.7V561.8z M409,561.8h46.5V544h-25.7v-58.3H409V561.8z
		 M370.3,561.8h21v-76.1h-21V561.8z M291.5,561.8h20.5v-34.2l24.8,34.2h25.9l-30.5-38.9l28.1-37.1h-24.2l-24,34.6v-34.6h-20.5V561.8
		z M232.1,537.2l-9.4,15.4c8.2,7.8,16.3,11.2,27,11.2c17.9,0,29.2-11,29.2-26.8c0-14-7.4-19-21-22.7c-6.9-1.8-12.1-3-12.1-8.4
		c0-3.6,3.3-6.4,8.4-6.4c4.7,0,9.8,2,14.6,6.1l6.5-14.9c-6.6-4.6-14-6.8-22.6-6.8c-16,0-26.3,10.5-26.3,24.7
		c0,11.9,6.7,17.5,20.4,21.1c8.6,2.2,12.8,4,12.8,10.1c0,4.5-3.7,7.9-9.5,7.9C244.1,547.6,238.1,544.1,232.1,537.2"/>
	<path class="st0" d="M686,468h19.5v-29.8l17.5,29.8h23.4l-20.7-30.6c11.1-2.3,17-9.9,17-21.7c0-7.9-3-14.4-8.5-18.6
		c-6.5-5-14.6-5.1-25.1-5.1h-1.3H686V468z M705.5,427.9v-20h4.1c8.6,0,12.6,2.6,12.6,10.5c0,6.7-4.1,9.5-12.9,9.5H705.5z M672,430.1
		c0-10.7-4-20.6-11.8-28.2c-7.7-7.4-18.2-11.7-28.8-11.7s-21.1,4.3-28.7,11.7c-7.8,7.6-11.9,17.3-11.9,28.2
		c0,12.2,5.2,23.1,14.8,30.8c7.3,5.9,16.6,9.2,25.9,9.2c10.6,0,21.1-4.1,28.8-11.7C667.8,450.8,672,440.9,672,430.1 M631.3,452.4
		c-12.1,0-19.9-9.8-19.9-22.3c0-12.4,8.2-22.3,19.9-22.3c11.6,0,19.9,10,19.9,22.3C651.2,442.5,643.1,452.4,631.3,452.4 M546.9,468
		h20.7v-58.1h17v-18H530v18h16.9V468z M523.9,430.1c0-10.7-4-20.6-11.8-28.2c-7.7-7.4-18.2-11.7-28.8-11.7s-21.1,4.3-28.7,11.7
		c-7.8,7.6-11.9,17.3-11.9,28.2c0,12.2,5.2,23.1,14.8,30.8c7.3,5.9,16.6,9.2,25.9,9.2c10.6,0,21.1-4.1,28.8-11.7
		C519.7,450.8,523.9,440.9,523.9,430.1 M483.2,452.4c-12.1,0-19.9-9.8-19.9-22.3c0-12.4,8.2-22.3,19.9-22.3
		c11.6,0,19.9,10,19.9,22.3C503.1,442.5,495,452.4,483.2,452.4 M433.5,468l-11.7-76.1h-20.5l-11.6,39.2c-0.9,2.8-1.8,6.2-2.3,10.4
		c-0.6-4.6-1.7-7.9-2.4-10.3l-11.5-39.3h-20.5L341.2,468h19.3l4.5-32.9c0.6-4.6,1.3-10.2,1.7-17c1.1,6.7,2.7,11.3,3.5,14.3
		l10.3,35.6h13.8l10.3-35.6c0.9-3,2.4-7.6,3.5-14.3c0.4,6.8,1,12.4,1.6,17l4.5,32.9H433.5z M250.5,468h46.6v-17h-26.4v-12.9h24.9
		v-16.3h-24.9v-13.2h26.4v-16.7h-46.6V468z M158.8,468h20v-37.6c0-4-0.4-9-1.2-15c3.7,8,6.2,12.3,6.9,13.3l28.7,39.3h19.9v-76.1
		h-19.9v37.6c0,4,0.4,9,1.2,15c-3.7-8-6.2-12.4-6.9-13.4l-28.7-39.2h-20V468z M120.1,468h21v-76.1h-21V468z M60.6,468h20.2v-29.9
		h24.9v-16.3H80.8v-13.2h26.4v-16.7H60.6V468z"/>
</g>
</svg>
