<?xml version="1.0" encoding="utf-8"?>
<!-- Generator: Adobe Illustrator 21.0.0, SVG Export Plug-In . SVG Version: 6.00 Build 0)  -->
<svg version="1.1" id="Layer_1" xmlns="http://www.w3.org/2000/svg" xmlns:xlink="http://www.w3.org/1999/xlink" x="0px" y="0px"
	 viewBox="0 0 800 800" style="enable-background:new 0 0 800 800;" xml:space="preserve">
<style type="text/css">
	.st0{fill:#FFFFFF;}
</style>
<g>
	<path class="st0" d="M491.8,393c-0.1-51.9-42.4-94.1-94.3-94.1s-94.2,42.2-94.3,94.1H491.8z M468,355.7c0.4-0.1,0.7,0.1,0.9,0.4
		c5.1,9.7,8,20.3,8.8,31.4c0,0.2-0.1,0.4-0.2,0.6c-0.2,0.2-0.4,0.3-0.6,0.3h-21.3c-0.4,0-0.8-0.4-0.8-0.8
		c-0.1-9.3-1.3-18.6-3.6-27.6c-0.1-0.2,0-0.5,0.1-0.6c0.1-0.2,0.3-0.3,0.5-0.4C457.5,358,463.1,356.9,468,355.7z M436,323.2
		c0.3-0.3,0.7-0.3,1-0.1c10,5.6,18.5,13.2,25.3,22.5c0.2,0.2,0.2,0.5,0.1,0.8s-0.3,0.5-0.6,0.5c-4.3,0.9-8.7,1.8-13.2,2.5h-0.1
		c-0.3,0-0.6-0.2-0.8-0.5c-3-8.4-7-16.7-11.9-24.7C435.7,323.9,435.8,323.5,436,323.2z M403.1,313.8c0-0.2,0.1-0.4,0.3-0.6
		c0.2-0.2,0.4-0.2,0.6-0.2c4.4,0.4,8.9,1.1,13.4,2.3c0.2,0,0.3,0.1,0.4,0.3c8.7,11.2,15.4,22.8,19.9,34.5c0.1,0.2,0.1,0.5-0.1,0.7
		c-0.1,0.2-0.3,0.4-0.6,0.4c-11,1.4-22.2,2.3-33.1,2.6l0,0c-0.2,0-0.4-0.1-0.6-0.2c-0.2-0.2-0.2-0.4-0.2-0.6L403.1,313.8z
		 M403.1,364.6c0-0.4,0.4-0.8,0.8-0.8c12.2-0.3,24.5-1.3,36.6-3c0.4-0.1,0.8,0.2,0.9,0.6c2.3,8.6,3.6,17.4,3.8,26.2
		c0,0.2-0.1,0.4-0.2,0.6c-0.2,0.2-0.4,0.2-0.6,0.2h-40.5c-0.5,0-0.8-0.4-0.8-0.8L403.1,364.6L403.1,364.6z M393.2,387.6
		c0,0.5-0.4,0.8-0.8,0.8h-39c-0.2,0-0.4-0.1-0.6-0.2c-0.2-0.2-0.2-0.4-0.2-0.6c0.2-8.6,1.3-17.3,3.5-25.6c0.1-0.4,0.5-0.7,0.9-0.6
		c11.4,1.5,23.3,2.4,35.4,2.5c0.4,0,0.8,0.4,0.8,0.8L393.2,387.6L393.2,387.6z M380.7,314.4c3.5-0.7,7.3-1.2,11.6-1.5
		c0.2,0,0.4,0.1,0.6,0.2c0.2,0.2,0.3,0.4,0.3,0.6V353c0,0.2-0.1,0.4-0.2,0.6c-0.2,0.2-0.4,0.2-0.6,0.2l0,0
		c-10.8-0.1-21.6-0.8-32.1-2.1c-0.2,0-0.5-0.2-0.6-0.4c-0.1-0.2-0.2-0.5-0.1-0.7c4.6-12.3,11.5-24.4,20.6-35.9
		C380.4,314.5,380.6,314.4,380.7,314.4z M332.6,345.6c7.6-10.3,17.6-18.7,29-24.4c0.3-0.2,0.7-0.1,1,0.2c0.2,0.3,0.3,0.7,0.1,1
		c-5.5,8.6-9.9,17.8-13.2,27.1c-0.1,0.3-0.4,0.5-0.8,0.5h-0.1c-5.1-0.9-10.3-1.9-15.5-3.1c-0.3-0.1-0.5-0.3-0.6-0.5
		C332.4,346.1,332.5,345.8,332.6,345.6z M327,355.6c5.9,1.5,11.9,2.8,18.5,3.9c0.2,0,0.4,0.2,0.5,0.4c0.1,0.2,0.2,0.4,0.1,0.6
		c-2.2,8.8-3.4,17.9-3.5,27.1c0,0.4-0.4,0.8-0.8,0.8H318c-0.2,0-0.4-0.1-0.6-0.3c-0.2-0.2-0.2-0.4-0.2-0.6
		c0.8-11.1,3.8-21.7,8.9-31.5C326.3,355.7,326.6,355.5,327,355.6z"/>
	<path class="st0" d="M303.2,393c0.1,51.9,42.4,94.1,94.3,94.1s94.2-42.2,94.3-94.1H303.2z M451.8,427c-0.2,0-0.4-0.2-0.5-0.4
		c-0.1-0.2-0.2-0.4-0.1-0.6c2.3-9,3.5-18.3,3.6-27.6c0-0.4,0.4-0.8,0.8-0.8H477c0.2,0,0.4,0.1,0.6,0.3c0.2,0.2,0.2,0.4,0.2,0.6
		c-0.8,11.1-3.7,21.6-8.8,31.4c-0.2,0.3-0.5,0.5-0.9,0.4C463.1,429.1,457.5,428,451.8,427z M435.9,461.8c4.9-8,8.9-16.3,11.9-24.7
		c0.1-0.3,0.4-0.5,0.8-0.5h0.1c4.5,0.8,8.9,1.6,13.2,2.5c0.3,0.1,0.5,0.2,0.6,0.5s0.1,0.5-0.1,0.8c-6.9,9.3-15.4,16.9-25.3,22.5
		c-0.3,0.2-0.7,0.1-1-0.1C435.8,462.5,435.7,462.1,435.9,461.8z M403.1,433.1c0-0.2,0.1-0.4,0.2-0.6c0.2-0.1,0.4-0.2,0.6-0.2l0,0
		c11,0.3,22.1,1.2,33.1,2.6c0.2,0,0.5,0.2,0.6,0.4c0.1,0.2,0.1,0.5,0.1,0.7c-4.5,11.7-11.2,23.3-19.9,34.5c-0.1,0.1-0.3,0.2-0.4,0.3
		c-4.5,1.1-9,1.9-13.4,2.3c-0.2,0-0.5-0.1-0.6-0.2c-0.2-0.2-0.3-0.4-0.3-0.6L403.1,433.1z M403.1,398.4c0-0.5,0.4-0.8,0.8-0.8h40.5
		c0.2,0,0.4,0.1,0.6,0.2c0.2,0.2,0.2,0.4,0.2,0.6c-0.2,8.8-1.5,17.6-3.8,26.2c-0.1,0.4-0.5,0.7-0.9,0.6c-12.1-1.7-24.5-2.7-36.6-3
		c-0.4,0-0.8-0.4-0.8-0.8L403.1,398.4L403.1,398.4z M393.2,421.4c0,0.4-0.4,0.8-0.8,0.8c-12.1,0.1-24,1-35.4,2.5
		c-0.4,0.1-0.8-0.2-0.9-0.6c-2.2-8.4-3.3-17-3.5-25.6c0-0.2,0.1-0.4,0.2-0.6c0.2-0.2,0.4-0.2,0.6-0.2h39c0.5,0,0.8,0.4,0.8,0.8
		L393.2,421.4L393.2,421.4z M380.3,471.3c-9.1-11.5-16-23.6-20.6-35.9c-0.1-0.2-0.1-0.5,0.1-0.7c0.1-0.2,0.4-0.4,0.6-0.4
		c10.5-1.3,21.3-2,32.1-2.1l0,0c0.2,0,0.4,0.1,0.6,0.2c0.2,0.2,0.2,0.4,0.2,0.6v39.3c0,0.2-0.1,0.4-0.3,0.6
		c-0.2,0.2-0.4,0.2-0.6,0.2c-4.3-0.3-8.1-0.8-11.6-1.5C380.6,471.6,380.4,471.5,380.3,471.3z M332.5,439.6c0.1-0.3,0.3-0.4,0.6-0.5
		c5.2-1.2,10.4-2.3,15.5-3.1h0.1c0.3,0,0.7,0.2,0.8,0.5c3.3,9.3,7.7,18.5,13.2,27.1c0.2,0.3,0.2,0.7-0.1,1c-0.2,0.3-0.6,0.3-1,0.2
		c-11.4-5.7-21.4-14.1-29-24.4C332.5,440.2,332.4,439.9,332.5,439.6z M326.1,430c-5.1-9.8-8.1-20.4-8.9-31.5c0-0.2,0.1-0.4,0.2-0.6
		c0.2-0.2,0.4-0.3,0.6-0.3h23.8c0.4,0,0.8,0.4,0.8,0.8c0.1,9.2,1.3,18.3,3.5,27.1c0.1,0.2,0,0.5-0.1,0.6c-0.1,0.2-0.3,0.3-0.5,0.4
		c-6.5,1.2-12.6,2.4-18.5,3.9C326.6,430.5,326.3,430.3,326.1,430z"/>
</g>
</svg>
