<?xml version="1.0" encoding="utf-8"?>
<!-- Generator: Adobe Illustrator 21.0.0, SVG Export Plug-In . SVG Version: 6.00 Build 0)  -->
<svg version="1.1" id="Layer_1" xmlns="http://www.w3.org/2000/svg" xmlns:xlink="http://www.w3.org/1999/xlink" x="0px" y="0px"
	 viewBox="0 0 800 800" style="enable-background:new 0 0 800 800;" xml:space="preserve">
<style type="text/css">
	.st0{fill:#FFFFFF;}
</style>
<path class="st0" d="M394,436.6c15.2,0,29.9-10.7,34.3-24.8c5.1-16.4-1.4-33.3-9-49.1c-5.8-11.9-13.3-23.2-22.4-33.6
	c-0.7-0.8-1.8-1.3-2.8-1.3s-2.1,0.5-2.8,1.3c-9.1,10.4-16.6,21.7-22.4,33.6c-7.7,15.9-14.1,32.8-9,49.1
	C364,425.9,378.8,436.6,394,436.6z M397.4,341.1c6.2,7.5,12.8,20.8,16.9,29.2c5.8,12,8.9,27.5,5.4,38.8c-2.8,9-8.4,17.3-18.3,19.1
	C401.4,428.2,414.3,373.4,397.4,341.1z"/>
<path class="st0" d="M446.1,417.1c-3.5-0.7-7.1-1.3-10.6-1.8c-0.9,2.7-2.1,5.2-3.6,7.7c3.3,0.6,6.5,1.3,9.6,2.2
	c12.2,3.1,27,7.5,27,12.3c0,9.6-37.4,18.4-74.6,18.4s-74.6-8.8-74.6-18.4c0-4.8,14.8-9.1,27-12.3c0,0,3.7-0.8,9.9-1.7
	c-1.6-2.6-2.9-5.3-3.9-8.1c-6.7,1-10.6,1.8-10.6,1.8c-25.5,4.3-42.4,11.8-42.4,20.3c0,13.4,42.3,24.3,94.5,24.3
	c52.2,0,94.5-10.9,94.5-24.3C488.5,428.9,471.7,421.5,446.1,417.1z"/>
</svg>
