<?xml version="1.0" encoding="utf-8"?>
<!-- Generator: Adobe Illustrator 21.0.2, SVG Export Plug-In . SVG Version: 6.00 Build 0)  -->
<svg version="1.1" xmlns="http://www.w3.org/2000/svg" xmlns:xlink="http://www.w3.org/1999/xlink" x="0px" y="0px"
	 viewBox="0 0 50 50" style="enable-background:new 0 0 50 50;" xml:space="preserve">
<style type="text/css">
	.st0{display:none;}
	.st1{display:inline;fill:#FFFFFF;}
	.st2{fill:#FFFFFF;}
</style>
<g id="pt" class="st0">
	<path class="st1" d="M25,1.2C11.9,1.2,1.2,11.9,1.2,25c0,9.7,5.9,18.1,14.2,21.8c-0.1-1.7,0-3.7,0.4-5.5c0.5-1.9,3.1-13,3.1-13
		s-0.8-1.5-0.8-3.8c0-3.5,2-6.2,4.6-6.2c2.2,0,3.2,1.6,3.2,3.6c0,2.2-1.4,5.4-2.1,8.4C23.3,33,25.1,35,27.6,35
		c4.5,0,7.5-5.8,7.5-12.6c0-5.2-3.5-9.1-9.9-9.1c-7.2,0-11.7,5.4-11.7,11.4c0,2.1,0.6,3.5,1.6,4.7c0.4,0.5,0.5,0.7,0.3,1.3
		c-0.1,0.4-0.4,1.5-0.5,1.9c-0.2,0.6-0.6,0.8-1.2,0.6c-3.3-1.4-4.9-5-4.9-9.1c0-6.8,5.7-14.9,17-14.9C35,9.2,41,15.8,41,22.8
		c0,9.3-5.2,16.3-12.8,16.3c-2.6,0-5-1.4-5.8-3c0,0-1.4,5.5-1.7,6.5c-0.5,1.8-1.5,3.7-2.4,5.1c2.1,0.6,4.4,1,6.7,1
		c13.1,0,23.8-10.6,23.8-23.8C48.8,11.9,38.1,1.2,25,1.2z"/>
</g>
<g id="ig" class="st0">
	<path class="st1" d="M39.3,1.7H10.7c-5,0-9,4-9,9v9.5v19.1c0,5,4,9,9,9h28.6c5,0,9-4,9-9V20.2v-9.5C48.3,5.7,44.3,1.7,39.3,1.7z
		 M41.9,7.1l1,0v1V15L35,15l0-7.9L41.9,7.1z M18.3,20.2c1.5-2.1,3.9-3.4,6.7-3.4s5.2,1.4,6.7,3.4c1,1.3,1.6,3,1.6,4.8
		c0,4.5-3.7,8.2-8.2,8.2s-8.2-3.7-8.2-8.2C16.8,23.2,17.4,21.6,18.3,20.2z M43.8,39.3c0,2.5-2,4.5-4.5,4.5H10.7
		c-2.5,0-4.5-2-4.5-4.5V20.2h7c-0.6,1.5-0.9,3.1-0.9,4.8c0,7,5.7,12.8,12.8,12.8c7,0,12.8-5.7,12.8-12.8c0-1.7-0.3-3.3-0.9-4.8h7
		V39.3z"/>
</g>
<g id="tw" class="st0">
	<path class="st1" d="M50,8.3c-1.8,0.9-3.8,1.5-5.9,1.7c2.1-1.4,3.8-3.5,4.5-6.1c-2,1.3-4.2,2.2-6.5,2.7c-1.9-2.2-4.5-3.5-7.5-3.5
		c-5.7,0-10.3,4.9-10.3,11c0,0.9,0.1,1.7,0.3,2.5C16.1,16.2,8.5,11.8,3.5,5.2c-0.9,1.6-1.4,3.5-1.4,5.6c0,3.8,1.8,7.2,4.6,9.2
		C5,19.8,3.4,19.3,2,18.5c0,0,0,0.1,0,0.2c0,5.3,3.5,9.8,8.2,10.8c-0.9,0.3-1.8,0.4-2.7,0.4c-0.7,0-1.3,0-1.9-0.2
		c1.3,4.4,5.1,7.6,9.6,7.7c-3.5,3-7.9,4.7-12.7,4.7c-0.8,0-1.6,0-2.4-0.2c4.5,3.1,9.9,5,15.7,5c18.9,0,29.2-16.8,29.2-31.4
		c0-0.5,0-0.9,0-1.4C46.9,12.5,48.6,10.5,50,8.3z"/>
</g>
<g id="yt" class="st0">
	<path class="st1" d="M47.5,14c0-0.2-0.1-0.4-0.1-0.5c0-0.1,0-0.2-0.1-0.2c-0.6-1.8-2.3-3-4.2-3h0.3c0,0-7.9-1.2-18.4-1.2
		C14.5,9,6.6,10.2,6.6,10.2h0.3c-2,0-3.6,1.3-4.2,3c0,0.1,0,0.2-0.1,0.2c0,0.2-0.1,0.3-0.1,0.5c-0.3,2-0.8,6.1-0.8,11
		c0,4.9,0.5,9,0.8,11c0,0.2,0.1,0.4,0.1,0.5c0,0.1,0,0.2,0.1,0.2c0.6,1.8,2.3,3,4.2,3H6.6c0,0,7.9,1.2,18.4,1.2
		c10.5,0,18.4-1.2,18.4-1.2h-0.3c2,0,3.6-1.3,4.2-3c0-0.1,0.1-0.2,0.1-0.2c0-0.2,0.1-0.3,0.1-0.5c0.3-2,0.8-6.1,0.8-11
		C48.2,20.1,47.7,16,47.5,14z M31.9,26l-9.4,6.8C22.3,33,22.1,33,21.8,33c-0.2,0-0.4,0-0.5-0.1c-0.4-0.2-0.6-0.6-0.6-1V18.3
		c0-0.4,0.2-0.8,0.6-1c0.4-0.2,0.8-0.2,1.2,0.1l9.4,6.8c0.3,0.2,0.5,0.6,0.5,0.9C32.4,25.4,32.2,25.8,31.9,26z"/>
</g>
<g id="fb">
	<path id="Facebook_2_" class="st2" d="M47,44.6c0,1.3-1.1,2.4-2.4,2.4H33.4V30h5.7l0.9-6.6h-6.6v-4.2c0-1.9,0.5-3.2,3.3-3.2l3.5,0
		V9.9c-0.6-0.1-2.7-0.3-5.1-0.3c-5.1,0-8.5,3.1-8.5,8.8v4.9h-5.7V30h5.7v17H5.4C4.1,47,3,45.9,3,44.6V5.4C3,4.1,4.1,3,5.4,3h39.1
		C45.9,3,47,4.1,47,5.4V44.6z"/>
</g>
</svg>
