<?xml version="1.0" encoding="utf-8"?>
<!-- Generator: Adobe Illustrator 21.0.2, SVG Export Plug-In . SVG Version: 6.00 Build 0)  -->
<svg version="1.1" xmlns="http://www.w3.org/2000/svg" xmlns:xlink="http://www.w3.org/1999/xlink" x="0px" y="0px"
	 viewBox="0 0 72.8 60.3" style="enable-background:new 0 0 72.8 60.3;" xml:space="preserve">
<style type="text/css">
	.st0{display:none;}
	.st1{display:inline;fill:#C7C8CA;}
	.st2{display:inline;fill:#FFFFFF;}
	.st3{display:inline;}
	.st4{fill:#FFFFFF;}
	.st5{clip-path:url(#SVGID_2_);fill:#FFFFFF;}
</style>
<g id="Layer_1" class="st0">
	<rect x="-359.6" y="-279.5" class="st1" width="792" height="612"/>
</g>
<g id="Layer_7" class="st0">
	<path class="st2" d="M64.1,15.1h-0.9v-2.3l-0.1,0c-1.4-0.3-3.4-0.7-4.5-0.9V9.7l-0.1,0c-2-0.4-4.2-0.6-6.4-0.6
		c-5.6,0-11.8,1.3-15.7,3.3c-3.9-2-10-3.3-15.6-3.3c-2.2,0-4.4,0.2-6.4,0.6l-0.1,0v2.2c-1.8,0.3-3.4,0.6-4.5,0.9l-0.1,0v2.3H8.7
		c-0.5,0-0.9,0.4-0.9,0.9v33.2c0,0.5,0.4,0.9,0.9,0.9h22.1l0.2,0.6c0.1,0.3,0.5,0.5,0.8,0.5h9.1c0.3,0,0.7-0.2,0.8-0.5l0.2-0.6h22.1
		c0.5,0,0.9-0.4,0.9-0.9V16C65,15.5,64.6,15.1,64.1,15.1z M23.7,44.6c-4.5,0-8.7,0.7-11.5,1.3v-31c0.6-0.1,1.3-0.2,2.1-0.4v29.1
		l0.1,0c0.3,0,0.7,0,1,0c3.4,0,7.4,0.4,10.6,1C25.2,44.6,24.5,44.6,23.7,44.6z M35.1,45.1c-4.4-2.4-11.1-3.8-18.3-4V11.9
		c1.2-0.2,2.5-0.2,3.9-0.2c5.2,0,10.9,1.2,14.4,3V45.1z M37.7,45.1V14.6c3.5-1.8,9.3-3,14.4-3c1.4,0,2.7,0.1,3.9,0.2v29.2
		C48.7,41.3,42.1,42.8,37.7,45.1z M60.6,45.9c-3-0.6-7.4-1.3-11.8-1.3c-0.7,0-1.4,0-2.1,0.1c3.2-0.7,7-1,10.5-1c0.4,0,0.8,0,1.1,0
		l0.1,0V14.5c0.6,0.1,1.3,0.2,2.1,0.4V45.9z"/>
</g>
<g id="Layer_6" class="st0">
	<g class="st3">
		<path class="st4" d="M49.2,49.5l10,1.5l-8.1-17.8c-0.6,0.5-1.2,1-1.9,1.5V49.5z"/>
		<path class="st4" d="M23.5,49.5V34.7c-0.7-0.5-1.3-1-1.9-1.5l-8.1,17.8L23.5,49.5z"/>
		<path class="st4" d="M26.5,36.6v23.7l9.9-5.8l9.9,5.8V36.6c-3,1.4-6.3,2.2-9.9,2.2C32.9,38.9,29.5,38.1,26.5,36.6z"/>
		<path class="st4" d="M36.4,0c-9.8,0-17.9,8-17.9,17.9c0,9.9,8,17.9,17.9,17.9c9.8,0,17.9-8,17.9-17.9C54.2,8,46.2,0,36.4,0z
			 M45.6,16.5l-4.5,3.9l1.4,5.8c0.2,0.9-0.2,1.2-1,0.7l-5.1-3.1l-5.1,3.1c-0.8,0.5-1.2,0.1-1-0.7l1.4-5.8l-4.5-3.9
			c-0.7-0.6-0.5-1.1,0.4-1.2l5.9-0.5l2.3-5.5c0.3-0.8,0.9-0.8,1.3,0l2.3,5.5l5.9,0.5C46.1,15.3,46.3,15.9,45.6,16.5z"/>
	</g>
</g>
<g id="Layer_5">
	<g>
		<circle class="st4" cx="25" cy="20.7" r="10.8"/>
		<path class="st4" d="M62.8,34c-5.6,4.2-14.6,8.5-24.7,11.8v11.8h-31v-9c0-10.6,7.5-14.4,16.8-14.4c19.6-0.9,23.4-4.7,34-9.1
			c0.5-0.2,1-0.3,1.5-0.4l1.3-3.4c0.5-1.3,2-2,3.3-1.5c1.3,0.5,2,2,1.5,3.3L64,26.9C65,28.1,65.9,31.7,62.8,34z"/>
		<path class="st4" d="M42.9,18.9c0,0,0.3-0.2,0.8-0.4l-0.6,1.7c-0.3,1,0.2,2,1.1,2.3c1,0.3,2-0.2,2.3-1.1l1.5-4.4
			c1.4-0.4,3.1-0.7,5.2-1l1.3,3.1c0.4,0.9,1.5,1.4,2.4,1c0.9-0.4,1.4-1.5,1-2.4l-0.9-2c0.4,0,0.7-0.1,1.1-0.1c1-0.1,1.8-0.9,1.7-1.9
			c-0.1-1-0.9-1.8-1.9-1.7c-0.8,0-1.6,0.1-2.4,0.2l-3.5-8.3c-0.3-0.7-1-1.2-1.8-1.1c-0.8,0-1.4,0.5-1.7,1.2l-3.5,10
			c-2.9,0.9-4.2,1.7-4.3,1.8c-0.9,0.5-1.1,1.7-0.6,2.5C40.9,19.1,41.9,19.5,42.9,18.9z M49.6,13l1.1-3.2l1.2,2.9
			C51.1,12.7,50.3,12.9,49.6,13z"/>
	</g>
</g>
<g id="Layer_3" class="st0">
	<g class="st3">
		<g>
			<path class="st4" d="M33.5,36.2c0.5-2.3,1.1-4.7,1.1-7.8c0-9.3-7.6-16.9-16.9-16.9C8.3,11.4,0.7,19,0.7,28.4
				c0,3.1,0.7,6.2,1.1,7.8c0.9,4.2,1.6,7.6-1.7,10.2C0,46.5,0,46.6,0,46.7c0,0.1,0.2,0.2,0.3,0.2c4.1,0,7.6,0,10.9,0
				c1.9,1.3,4,1.9,6.3,1.9c2.4,0,4.5-0.7,6.4-1.9c3.3,0,6.9,0,11.1,0c0.1,0,0.3-0.1,0.3-0.2c0-0.1,0-0.3-0.1-0.3
				C31.8,43.8,32.6,40.5,33.5,36.2z M8.1,18.9c1.3-0.2,2-0.4,3.5-0.7c1.1-1.1,1.6-1.6,2.5-2.5c0.1-0.1,0.3-0.1,0.4,0
				c1.5,1.4,2,2.4,2.4,4.4c0,0.2-0.1,0.3-0.3,0.4c-1.3,0.2-2,0.4-3.5,0.7c-1.1,1-1.6,1.6-2.5,2.5c-0.1,0.1-0.1,0.1-0.2,0.1
				c0,0,0,0,0,0c-0.1,0-0.2,0-0.2-0.1c-1.5-1.4-2-2.4-2.4-4.4C7.8,19.1,7.9,18.9,8.1,18.9z M32,32.8c-0.2,2-1.3,3.3-2.1,3.3
				c-0.4,0-0.7-0.3-1.2,0c-0.3,0.1-0.5,0.4-0.6,0.7c-1.6,6.4-5.6,10.1-10.6,10.1c-4.9,0-8.9-3.8-10.6-10.2c-0.1-0.3-0.3-0.6-0.6-0.7
				c-0.3-0.1-0.6,0-1.1,0c-0.8,0.1-1.9-1.3-2.2-3.3c-0.2-2,0.5-3.7,1.3-3.8c0.1,0.4,0.6,0.8,1,0.8c0,0,0,0,0,0c0.5,0,1-0.4,1.1-0.9
				c0.2-1.1,0.5-2.2,1-3.2c1.9,1.4,5.3,3.1,10.5,3.1c2.1,0,4.2-0.3,6.5-0.8c0.1,0,0.2-0.2,0.2-0.3c0-0.1-0.1-0.3-0.2-0.3
				c0,0-2.6-0.9-3.9-2.9c3.2-0.6,7.7,2,7.9,4.3c0.1,0.5,0.6,0.9,1.1,0.9c0.5,0,0.8-0.3,1-0.8C31.5,29.1,32.3,30.8,32,32.8z"/>
			<circle class="st4" cx="12.5" cy="31.9" r="1.7"/>
			<circle class="st4" cx="22.9" cy="31.9" r="1.7"/>
			<path class="st4" d="M17.7,40.3c-2.7,0-3.7-1-3.7,0.4c0,1.2,1.7,2.4,3.7,2.4c2,0,3.7-1.2,3.7-2.4C21.4,39.3,20.5,40.3,17.7,40.3z
				"/>
		</g>
		<g>
			<path class="st4" d="M70.6,26.6c-0.5-5.2-3.5-9.6-7.8-12.1c1.3,0,2.2,0.1,2.2,0.1c0.1,0,0.3-0.1,0.3-0.2c0-0.1,0-0.3-0.1-0.4
				c-2.9-1.8-5.9-2.7-9-2.7c-3.2,0-5.5,1-5.9,1.2c-0.3,0-0.7,0-1,0c-5.2,0-7.8,4-7.9,4.2c-0.1,0.1-0.1,0.3,0,0.4
				c0.1,0.1,0.3,0.1,0.4,0.1c0.8-0.3,1.6-0.6,2.3-0.8c-2.8,2.6-4.7,6.1-5.2,10.1c-1.5,1-2.4,3.3-2.1,5.9c0.4,3.1,2.4,5.4,4.6,5.4
				c2.3,6.9,7.2,11,13.4,11c6.3,0,11.2-4.1,13.5-11c0,0,0,0,0,0c2.2,0,4.2-2.3,4.5-5.4c0.2-1.5,0-2.9-0.6-4.1
				C71.7,27.6,71.2,27,70.6,26.6z M70.6,32.2c-0.3,2.2-1.5,3.6-2.5,3.4c-0.4-0.1-0.7-0.3-1.1,0c-0.3,0.1-0.5,0.4-0.6,0.7
				c-1.8,6.5-6.2,10.4-11.7,10.4c-5.5,0-9.8-3.9-11.7-10.5c-0.1-0.3-0.3-0.6-0.6-0.7c-0.5-0.2-0.8,0-1.2,0c-1,0.1-2.2-1.3-2.5-3.4
				c-0.3-2.2,0.6-3.8,1.6-4c0.2,0,0.4,0,0.6,0.1c0.3,0.1,0.6,0,0.9,0c1.4-0.2,4.6-0.9,7.3-4.4c1.8,1.4,6.8,4.5,15.1,4.5
				c0.4,0,0.7,0,1.1,0c0.1,0,0.3-0.1,0.3-0.3c0-0.1-0.1-0.3-0.2-0.3c0,0-1.4-0.6-3-1.6c1.3,0,2.6-0.1,3.9-0.3
				c0.2,0.5,0.3,1.1,0.5,1.6c0.1,0.3,0.3,0.6,0.6,0.8c0.3,0.2,0.7,0.2,1,0c0.2-0.1,0.4-0.1,0.6-0.1c0.6,0.1,1,0.7,1.2,1.1
				C70.6,30.1,70.8,31.1,70.6,32.2z"/>
			<circle class="st4" cx="48.8" cy="31" r="1.9"/>
			<circle class="st4" cx="60.6" cy="31" r="1.9"/>
			<path class="st4" d="M54.7,40.2c-2.9,0-4-1.1-4,0.4c0,1.3,1.8,2.6,4,2.6c2.2,0,4-1.3,4-2.6C58.7,39.1,57.8,40.2,54.7,40.2z"/>
		</g>
	</g>
</g>
<g id="Layer_2" class="st0">
	<g class="st3">
		<defs>
			<rect id="SVGID_1_" x="13.5" y="7.2" width="45.9" height="45.9"/>
		</defs>
		<clipPath id="SVGID_2_">
			<use xlink:href="#SVGID_1_"  style="overflow:visible;"/>
		</clipPath>
		<path class="st5" d="M52.2,41.8l-0.8-3.4l-8.3,1L39.6,47l3,1.8c-1.9,0.6-4,1-6.1,1c-2.1,0-4.2-0.4-6.1-1l3-1.8l-3.6-7.6l-8.3-1
			l-0.8,3.4c-2.4-3.3-3.8-7.3-3.8-11.6v-0.1l2.6,2.3l6.1-5.7l-1.6-8.3l-3.5,0.3c2.4-3.4,5.9-5.9,10-7.2L29,14.6l7.3,4.1l7.3-4.1
			l-1.4-3.2c4,1.3,7.5,3.9,10,7.2l-3.4-0.3l-1.6,8.3l6.1,5.7l2.6-2.3v0.1C56,34.5,54.6,38.5,52.2,41.8 M36.4,7.2
			c-12.7,0-22.9,10.3-22.9,22.9s10.3,22.9,22.9,22.9s22.9-10.3,22.9-22.9S49.1,7.2,36.4,7.2 M29,28.1l2.8,8.6h9.1l2.8-8.6l-7.3-5.3
			L29,28.1z"/>
	</g>
</g>
<g id="Layer_4" class="st0">
	<g class="st3">
		<path class="st4" d="M28.4,43.1c2,0,3.3,1.1,3.3,4.2c-0.1,4.4,2.3,10.4,11,10.5c5.6,0,11.5-2.6,16.7-4.9c1.8-0.7,3.6-1.5,1.4-4.2
			c-1-1.2-3.1-2.2-5.7-1.2c-3.2,1.3-9.6,3.7-13.1,3.7c-2.6,0-4-1.6-4.2-4.5c-0.4-5.5-5.1-7.4-8.5-7.4c-5.9,0-13.8,4.1-16.2,5.3
			c-1.7,0.9-2.4,2.6-1.9,3.4c0.6,0.9,2.3,1.3,4.3,0.1C21.4,44.8,26.2,43.1,28.4,43.1z"/>
		<path class="st4" d="M42.6,23L25.1,4.4c-2.2-2.5-6.2-2.5-8.8,0.2c-2.6,2.7-2.3,6.7,0.2,8.8l20,16.8C37.2,27.4,39,24.6,42.6,23z"/>
		<path class="st4" d="M51.9,42.7c6.3,0.1,12-2.7,8.6-3.5c-4.8-1.2-5.2-8.8-9.8-12.5c-3.6-2.9-8.6-1.9-10.7,2.3
			C37.9,32.9,38.8,42.5,51.9,42.7z"/>
	</g>
</g>
</svg>
