<?xml version="1.0" encoding="utf-8"?>
<!-- Generator: Adobe Illustrator 21.0.0, SVG Export Plug-In . SVG Version: 6.00 Build 0)  -->
<svg version="1.1" id="Layer_2" xmlns="http://www.w3.org/2000/svg" xmlns:xlink="http://www.w3.org/1999/xlink" x="0px" y="0px"
	 viewBox="0 0 251.8 188.2" style="enable-background:new 0 0 251.8 188.2;" xml:space="preserve">
<style type="text/css">
	.st0{fill:#FFFFFF;}
</style>
<g>
	<path class="st0" d="M219.1,94.1C219,42.8,177.2,1.1,125.9,1.1S32.8,42.8,32.7,94.1H219.1z M195.6,57.2c0.4-0.1,0.7,0.1,0.9,0.4
		c5,9.6,7.9,20.1,8.7,31c0,0.2-0.1,0.4-0.2,0.6c-0.2,0.2-0.4,0.3-0.6,0.3h-21.1c-0.4,0-0.8-0.4-0.8-0.8c-0.1-9.2-1.3-18.4-3.6-27.3
		c-0.1-0.2,0-0.5,0.1-0.6c0.1-0.2,0.3-0.3,0.5-0.4C185.2,59.5,190.8,58.4,195.6,57.2z M164,25.1c0.3-0.3,0.7-0.3,1-0.1
		c9.9,5.5,18.3,13.1,25,22.2c0.2,0.2,0.2,0.5,0.1,0.8c-0.1,0.3-0.3,0.5-0.6,0.5c-4.3,0.9-8.6,1.8-13.1,2.5h-0.1
		c-0.3,0-0.6-0.2-0.8-0.5c-3-8.3-6.9-16.5-11.8-24.4C163.7,25.8,163.8,25.4,164,25.1z M131.4,15.8c0-0.2,0.1-0.4,0.3-0.6
		c0.2-0.2,0.4-0.2,0.6-0.2c4.4,0.4,8.8,1.1,13.3,2.3c0.2,0,0.3,0.1,0.4,0.3c8.6,11.1,15.2,22.5,19.7,34.1c0.1,0.2,0.1,0.5-0.1,0.7
		c-0.1,0.2-0.3,0.4-0.6,0.4c-10.9,1.4-22,2.3-32.7,2.6l0,0c-0.2,0-0.4-0.1-0.6-0.2c-0.2-0.2-0.2-0.4-0.2-0.6L131.4,15.8z M131.4,66
		c0-0.4,0.4-0.8,0.8-0.8c12.1-0.3,24.2-1.3,36.2-3c0.4-0.1,0.8,0.2,0.9,0.6c2.3,8.5,3.6,17.2,3.8,25.9c0,0.2-0.1,0.4-0.2,0.6
		c-0.2,0.2-0.4,0.2-0.6,0.2h-40c-0.5,0-0.8-0.4-0.8-0.8L131.4,66L131.4,66z M121.6,88.8c0,0.5-0.4,0.8-0.8,0.8H82.3
		c-0.2,0-0.4-0.1-0.6-0.2c-0.2-0.2-0.2-0.4-0.2-0.6c0.2-8.5,1.3-17.1,3.5-25.3c0.1-0.4,0.5-0.7,0.9-0.6c11.3,1.5,23,2.4,35,2.5
		c0.4,0,0.8,0.4,0.8,0.8L121.6,88.8L121.6,88.8z M109.3,16.4c3.5-0.7,7.2-1.2,11.5-1.5c0.2,0,0.4,0.1,0.6,0.2
		c0.2,0.2,0.3,0.4,0.3,0.6v38.9c0,0.2-0.1,0.4-0.2,0.6c-0.2,0.2-0.4,0.2-0.6,0.2l0,0c-10.7-0.1-21.4-0.8-31.7-2.1
		c-0.2,0-0.5-0.2-0.6-0.4c-0.1-0.2-0.2-0.5-0.1-0.7C93,40,99.8,28,108.8,16.7C109,16.5,109.2,16.4,109.3,16.4z M61.7,47.2
		C69.2,37,79.1,28.7,90.4,23.1c0.3-0.2,0.7-0.1,1,0.2c0.2,0.3,0.3,0.7,0.1,1c-5.4,8.5-9.8,17.6-13.1,26.8c-0.1,0.3-0.4,0.5-0.8,0.5
		h-0.1c-5-0.9-10.2-1.9-15.3-3.1c-0.3-0.1-0.5-0.3-0.6-0.5C61.5,47.7,61.6,47.4,61.7,47.2z M56.2,57.1C62,58.6,68,59.9,74.5,61
		c0.2,0,0.4,0.2,0.5,0.4c0.1,0.2,0.2,0.4,0.1,0.6c-2.2,8.7-3.4,17.7-3.5,26.8c0,0.4-0.4,0.8-0.8,0.8H47.3c-0.2,0-0.4-0.1-0.6-0.3
		c-0.2-0.2-0.2-0.4-0.2-0.6c0.8-11,3.8-21.5,8.8-31.1C55.5,57.2,55.8,57,56.2,57.1z"/>
	<path class="st0" d="M32.7,94.1c0.1,51.3,41.9,93.1,93.2,93.1s93.1-41.7,93.2-93.1H32.7z M179.6,127.7c-0.2,0-0.4-0.2-0.5-0.4
		c-0.1-0.2-0.2-0.4-0.1-0.6c2.3-8.9,3.5-18.1,3.6-27.3c0-0.4,0.4-0.8,0.8-0.8h21.2c0.2,0,0.4,0.1,0.6,0.3c0.2,0.2,0.2,0.4,0.2,0.6
		c-0.8,11-3.7,21.4-8.7,31c-0.2,0.3-0.5,0.5-0.9,0.4C190.8,129.8,185.2,128.7,179.6,127.7z M163.9,162.1c4.8-7.9,8.8-16.1,11.8-24.4
		c0.1-0.3,0.4-0.5,0.8-0.5h0.1c4.4,0.8,8.8,1.6,13.1,2.5c0.3,0.1,0.5,0.2,0.6,0.5c0.1,0.3,0.1,0.5-0.1,0.8
		c-6.8,9.2-15.2,16.7-25,22.2c-0.3,0.2-0.7,0.1-1-0.1C163.8,162.8,163.7,162.4,163.9,162.1z M131.4,133.8c0-0.2,0.1-0.4,0.2-0.6
		c0.2-0.1,0.4-0.2,0.6-0.2l0,0c10.9,0.3,21.9,1.2,32.7,2.6c0.2,0,0.5,0.2,0.6,0.4c0.1,0.2,0.1,0.5,0.1,0.7
		c-4.4,11.6-11.1,23-19.7,34.1c-0.1,0.1-0.3,0.2-0.4,0.3c-4.4,1.1-8.9,1.9-13.3,2.3c-0.2,0-0.5-0.1-0.6-0.2
		c-0.2-0.2-0.3-0.4-0.3-0.6L131.4,133.8z M131.4,99.4c0-0.5,0.4-0.8,0.8-0.8h40c0.2,0,0.4,0.1,0.6,0.2c0.2,0.2,0.2,0.4,0.2,0.6
		c-0.2,8.7-1.5,17.4-3.8,25.9c-0.1,0.4-0.5,0.7-0.9,0.6c-12-1.7-24.2-2.7-36.2-3c-0.4,0-0.8-0.4-0.8-0.8L131.4,99.4L131.4,99.4z
		 M121.6,122.2c0,0.4-0.4,0.8-0.8,0.8c-12,0.1-23.7,1-35,2.5c-0.4,0.1-0.8-0.2-0.9-0.6c-2.2-8.3-3.3-16.8-3.5-25.3
		c0-0.2,0.1-0.4,0.2-0.6c0.2-0.2,0.4-0.2,0.6-0.2h38.6c0.5,0,0.8,0.4,0.8,0.8L121.6,122.2L121.6,122.2z M108.9,171.5
		c-9-11.4-15.8-23.3-20.4-35.5c-0.1-0.2-0.1-0.5,0.1-0.7c0.1-0.2,0.4-0.4,0.6-0.4c10.4-1.3,21.1-2,31.7-2.1l0,0
		c0.2,0,0.4,0.1,0.6,0.2c0.2,0.2,0.2,0.4,0.2,0.6v38.9c0,0.2-0.1,0.4-0.3,0.6c-0.2,0.2-0.4,0.2-0.6,0.2c-4.3-0.3-8-0.8-11.5-1.5
		C109.2,171.8,109,171.7,108.9,171.5z M61.6,140.2c0.1-0.3,0.3-0.4,0.6-0.5c5.1-1.2,10.3-2.3,15.3-3.1h0.1c0.3,0,0.7,0.2,0.8,0.5
		c3.3,9.2,7.6,18.3,13.1,26.8c0.2,0.3,0.2,0.7-0.1,1c-0.2,0.3-0.6,0.3-1,0.2c-11.3-5.6-21.2-13.9-28.7-24.1
		C61.6,140.8,61.5,140.5,61.6,140.2z M55.3,130.7c-5-9.7-8-20.2-8.8-31.1c0-0.2,0.1-0.4,0.2-0.6c0.2-0.2,0.4-0.3,0.6-0.3h23.5
		c0.4,0,0.8,0.4,0.8,0.8c0.1,9.1,1.3,18.1,3.5,26.8c0.1,0.2,0,0.5-0.1,0.6c-0.1,0.2-0.3,0.3-0.5,0.4c-6.4,1.2-12.5,2.4-18.3,3.9
		C55.8,131.2,55.5,131,55.3,130.7z"/>
</g>
</svg>
