<?xml version="1.0" encoding="utf-8"?>
<!-- Generator: Adobe Illustrator 21.0.0, SVG Export Plug-In . SVG Version: 6.00 Build 0)  -->
<svg version="1.1" id="Layer_2" xmlns="http://www.w3.org/2000/svg" xmlns:xlink="http://www.w3.org/1999/xlink" x="0px" y="0px"
	 viewBox="0 0 251.8 188.2" style="enable-background:new 0 0 251.8 188.2;" xml:space="preserve">
<style type="text/css">
	.st0{fill:#FFFFFF;}
</style>
<path class="st0" d="M213.5,65.7c-23.4-25.1-54.6-38.9-87.6-38.9S61.7,40.6,38.3,65.7C14.5,91.2,1.4,125.2,1.4,161.5h12.9
	c0-6,0.4-12,1.3-17.8h34.1c-0.5,5.8-0.7,11.8-0.7,17.8h12.9c0-62.2,28.8-112.8,64.1-112.8S190,99.3,190,161.5h12.9
	c0-6-0.2-12-0.7-17.8h34.1c0.8,5.8,1.3,11.8,1.3,17.8h12.9C250.4,125.2,237.2,91.2,213.5,65.7z M51.1,130.7H18.2
	c1.5-5.9,3.5-11.8,5.8-17.3h30.3C53,119.1,52,124.8,51.1,130.7z M58,100.5H30.5C33.6,95,37.1,90,40.9,85.3h22.7
	C61.5,90.1,59.7,95.2,58,100.5z M70.8,70.8c-0.3,0.5-0.5,0.9-0.8,1.4H52.9c9.5-8.7,20.3-15.6,32.1-20.6C79.9,57,75.2,63.4,70.8,70.8
	z M181,70.8c-4.3-7.4-9.1-13.8-14.1-19.2c11.9,4.9,22.6,12,32.1,20.6h-17.1C181.5,71.8,181.2,71.3,181,70.8z M188.2,85.3H211
	c3.9,4.7,7.3,9.9,10.4,15.2h-27.5C192.1,95.2,190.3,90.1,188.2,85.3z M200.7,130.7c-0.9-5.9-2-11.7-3.3-17.3h30.3
	c2.4,5.5,4.3,11.4,5.8,17.3H200.7z"/>
</svg>
