<?xml version="1.0" encoding="utf-8"?>
<!-- Generator: Adobe Illustrator 21.0.0, SVG Export Plug-In . SVG Version: 6.00 Build 0)  -->
<svg version="1.1" id="Layer_1" xmlns="http://www.w3.org/2000/svg" xmlns:xlink="http://www.w3.org/1999/xlink" x="0px" y="0px"
	 viewBox="0 0 251.8 188.2" style="enable-background:new 0 0 251.8 188.2;" xml:space="preserve">
<style type="text/css">
	.st0{display:none;}
	.st1{display:inline;}
	.st2{fill:#FFFFFF;}
</style>
<g class="st0">
	<path class="st1" d="M1954.9,3426.9h-7575.3c-12.8,0-23.2-10.4-23.2-23.2v-7265.4c0-12.8,10.4-23.2,23.2-23.2h7575.3
		c12.8,0,23.2,10.4,23.2,23.2v7265.4C1978.1,3416.5,1967.7,3426.9,1954.9,3426.9z"/>
</g>
<g>
	<path class="st2" d="M125.8,148.4c19.7,0,38.8-13.9,44.5-32.2c6.6-21.3-1.8-43.2-11.7-63.7c-7.5-15.4-17.3-30.1-29.1-43.6
		c-0.9-1-2.3-1.7-3.6-1.7s-2.7,0.6-3.6,1.7C110.5,22.3,100.7,37,93.2,52.4c-10,20.6-18.3,42.6-11.7,63.7
		C86.8,134.5,106,148.4,125.8,148.4z M130.2,24.4c8,9.7,16.6,27,21.9,37.9c7.5,15.6,11.6,35.7,7,50.4c-3.6,11.7-10.9,22.5-23.8,24.8
		C135.4,137.5,152.1,66.3,130.2,24.4z"/>
	<path class="st2" d="M193.8,123c-4.5-0.9-9.2-1.7-13.8-2.3c-1.2,3.5-2.7,6.7-4.7,10c4.3,0.8,8.4,1.7,12.5,2.9c15.8,4,35,9.7,35,16
		c0,12.5-48.5,23.9-96.8,23.9S29.2,162,29.2,149.5c0-6.2,19.2-11.8,35-16c0,0,4.8-1,12.8-2.2c-2.1-3.4-3.8-6.9-5.1-10.5
		c-8.7,1.3-13.8,2.3-13.8,2.3c-33.1,5.6-55,15.3-55,26.3c0,17.4,54.9,31.5,122.7,31.5s122.7-14.1,122.7-31.5
		C248.8,138.4,227,128.8,193.8,123z"/>
</g>
</svg>
